<svg width="316" height="203" viewBox="0 0 316 203" fill="none" xmlns="http://www.w3.org/2000/svg">
<path d="M0 17C0 7.61117 7.61116 0 17 0H299C308.389 0 316 7.61116 316 17V186C316 195.389 308.389 203 299 203H17C7.61116 203 0 195.389 0 186V17Z" fill="#B6D9D2"/>
<mask id="mask0_527_1944" style="mask-type:alpha" maskUnits="userSpaceOnUse" x="0" y="0" width="316" height="203">
<path d="M0 17C0 7.61117 7.61116 0 17 0H299C308.389 0 316 7.61116 316 17V186C316 195.389 308.389 203 299 203H17C7.61116 203 0 195.389 0 186V17Z" fill="#B6D9D2"/>
</mask>
<g mask="url(#mask0_527_1944)">
<path fill-rule="evenodd" clip-rule="evenodd" d="M62.7276 50.4189C77.8935 48.5022 95.2246 53.1774 105.886 64.1516C116.825 75.4107 109.3 96.6371 119.35 108.699C129.749 121.181 159.025 115.263 161.814 131.28C164.691 147.798 133.304 152.879 129.903 169.298C126.393 186.236 149.935 202.503 143.715 218.642C138.251 232.822 118.275 235.915 103.297 238.336C89.6001 240.551 75.5935 236.938 62.7276 231.735C51.9621 227.382 46.84 212.612 35.3622 210.867C16.9782 208.071 -2.93274 228.538 -19.0763 219.294C-32.3867 211.672 -28.7733 189.988 -27.8747 174.655C-27.0712 160.945 -15.8379 149.979 -14.2149 136.343C-12.3461 120.642 -26.1371 103.034 -17.7555 89.6355C-9.70514 76.7666 10.8797 81.0783 24.5122 74.4356C38.2067 67.7628 47.6191 52.3283 62.7276 50.4189Z" fill="#A2CAC2"/>
</g>
</svg>
