<svg width="40" height="110" viewBox="0 0 40 110" fill="none" xmlns="http://www.w3.org/2000/svg">
<path d="M12.6291 93.5123C12.4529 93.6747 12.274 93.8373 12.0926 94.0006C12.1593 93.6796 12.2296 93.3514 12.301 93.0173C12.56 91.8066 12.8353 90.52 13.0193 89.2268C13.0886 88.7788 13.0014 88.3883 12.905 88.1104C12.8082 87.8317 12.6745 87.5889 12.5725 87.4156C12.5166 87.3206 12.4308 87.1828 12.3653 87.0777C12.3329 87.0257 12.3055 86.9817 12.2891 86.9548C12.2091 86.8232 12.1687 86.7463 12.1477 86.697L11.5214 85.2254L10.0929 85.9446C9.97454 86.0042 9.83008 86.0716 9.6689 86.1469C9.17526 86.3772 8.52471 86.6808 7.98517 87.0577C7.71996 87.2251 7.55173 87.4324 7.45551 87.572C7.33836 87.7418 7.26212 87.9079 7.21492 88.022C7.14659 88.1871 7.07629 88.4113 7.04874 88.4992C7.04495 88.5113 7.04197 88.5208 7.03991 88.5272C6.60631 89.7884 6.16283 91.0512 5.71848 92.3165C4.60568 95.4852 3.48743 98.6694 2.50527 101.883C1.98427 103.517 2.07794 105.244 3.0827 106.509C4.12964 107.827 5.82495 108.224 7.58569 107.837C12.4485 106.787 17.2062 105.305 21.8321 103.752C23.8674 103.069 25.6755 101.328 26.0041 98.4602L26.2467 96.343L24.1719 96.8289C22.1715 97.2974 20.3779 97.6971 18.6168 98.0895C18.3047 98.1591 17.9936 98.2284 17.6825 98.2979C18.5157 97.2665 19.3854 96.2279 20.2664 95.1759C22.6744 92.3006 25.1667 89.3245 27.2273 86.1178L27.2289 86.1152C42.2329 62.6618 41.6434 32.3321 25.9034 10.4924C24.3065 8.25932 22.4542 6.30527 20.6828 4.43661L20.6727 4.42599C20.133 3.81351 19.4209 3.54593 18.9491 3.39975C18.7164 3.32766 18.4792 3.26771 18.2883 3.21947C18.2709 3.21506 18.2538 3.21075 18.2372 3.20653C18.0199 3.15148 17.8644 3.11047 17.7338 3.06662L16.6417 2.70004L16.0093 3.65521C16.0063 3.65833 15.982 3.68627 15.8933 3.77559C15.8879 3.78101 15.8821 3.78686 15.8759 3.7931C15.7774 3.89182 15.5778 4.09201 15.4081 4.34842L14.8812 5.14425L15.3789 5.95865C15.7076 6.49646 16.0174 7.037 16.3392 7.59869L16.344 7.60711C16.6611 8.16053 16.9901 8.73478 17.3427 9.31175L17.3427 9.31175L17.3462 9.31749C18.0863 10.5163 18.8266 11.6564 19.5544 12.7772C20.8298 14.7413 22.0667 16.6462 23.1966 18.7045C36.6246 43.5689 32.457 73.5262 12.6291 93.5123Z" fill="#302364" stroke="#302364" stroke-width="3"/>
</svg>
