<svg width="316" height="203" viewBox="0 0 316 203" fill="none" xmlns="http://www.w3.org/2000/svg">
<path d="M0 17C0 7.61117 7.61116 0 17 0H299C308.389 0 316 7.61116 316 17V186C316 195.389 308.389 203 299 203H17C7.61116 203 0 195.389 0 186V17Z" fill="#B6C6D9"/>
<mask id="mask0_527_1951" style="mask-type:alpha" maskUnits="userSpaceOnUse" x="0" y="0" width="316" height="203">
<path d="M0 17C0 7.61117 7.61116 0 17 0H299C308.389 0 316 7.61116 316 17V186C316 195.389 308.389 203 299 203H17C7.61116 203 0 195.389 0 186V17Z" fill="#B6C6D9"/>
</mask>
<g mask="url(#mask0_527_1951)">
<path d="M24.6485 149.978C25.1633 149.152 25.4632 148.21 25.5209 147.239C25.5786 146.268 25.3923 145.298 24.9789 144.417C24.1203 142.104 23.0838 139.861 21.8786 137.707C20.0317 134.497 17.9589 131.458 15.9638 128.289C13.4287 124.259 11.8793 119.691 11.441 114.955C10.9373 109.724 12.4938 104.504 15.7811 100.399C19.0685 96.294 23.8287 93.6266 29.0543 92.961C35.9562 92.075 41.7837 94.2492 46.1677 99.5083C48.2305 101.931 49.9335 104.638 51.2244 107.544C53.3347 112.444 54.9244 117.571 56.7523 122.595C57.5174 124.679 57.8294 127.003 60.1733 128.885C60.6771 126.986 61.1511 125.383 61.5157 123.755C62.4917 119.443 63.1252 115.021 64.4353 110.819C68.6773 97.2011 77.5062 88.0389 91.6721 84.9116C102.156 82.5945 111.8 84.7099 119.795 92.2912C126.421 98.5892 128.12 107.313 123.981 115.456C122.406 118.476 120.443 121.279 118.143 123.793C111.979 130.708 104.45 135.931 96.4315 140.471C93.4737 142.143 90.6446 144.046 87.8411 145.951C86.2271 147.074 84.9382 148.602 84.1042 150.38C85.7677 150.227 87.4209 149.979 89.0556 149.636C93.1255 148.507 97.1753 147.302 101.205 146.023C108.298 143.786 115.439 141.818 122.904 141.424C129.828 141.068 135.981 142.882 140.964 147.886C145.35 152.284 146.599 158.58 144.198 163.813C142.656 167.002 139.99 169.512 136.709 170.863C132.267 172.818 127.549 174.078 122.722 174.6C113.784 175.74 104.804 175.565 95.8343 175.135C91.8137 174.94 87.793 174.626 83.7785 174.466C82.2323 174.374 80.6808 174.487 79.1643 174.8C76.7217 175.367 76.0387 177.381 77.7466 179.191C78.9782 180.426 80.4154 181.438 81.9942 182.182C84.3971 183.36 86.9841 184.117 89.4059 185.271C93.2585 187.001 97.0087 188.949 100.638 191.106C107.629 195.529 112.403 201.669 113.89 210.011C115.421 218.578 111.461 226.478 103.565 230.141C96.4907 233.435 89.2032 233.501 81.8996 230.812C73.0137 227.54 65.9607 221.834 60.336 214.329C57.8629 211.031 55.6965 207.508 53.1237 204.289C50.5509 201.069 47.7674 198.047 44.9011 195.105C43.7535 194.071 42.4325 193.246 40.9986 192.669C39.9339 192.135 38.7453 191.895 37.5564 191.975C36.3676 192.054 35.2221 192.45 34.239 193.121C29.9557 195.821 26.1534 199.213 22.988 203.159C19.6341 207.334 16.2316 211.472 12.7805 215.572C10.8311 217.991 8.32799 219.908 5.48143 221.162C-0.333873 223.583 -5.1609 220.688 -5.81444 214.426C-6.12643 211.949 -5.60048 209.44 -4.31997 207.295C-2.38371 204.135 -0.325973 201.069 1.84656 198.07C3.64972 195.574 5.75354 193.295 7.59011 190.809C8.13923 189.97 8.46446 189.004 8.53499 188.004C8.69304 186.202 8.47336 184.386 7.88991 182.672C7.30645 180.959 6.37199 179.385 5.14593 178.051C1.86555 174.209 -1.56975 170.502 -4.83251 166.653C-7.27248 163.869 -9.56028 160.955 -11.6859 157.926C-13.686 154.999 -14.5858 151.462 -14.2264 147.939C-13.4687 139.997 -6.14478 134.776 1.50267 137.081C4.11172 138.016 6.58926 139.283 8.87417 140.849C12.4669 143.076 15.858 145.613 19.4854 147.834C21.1454 148.687 22.8721 149.404 24.6485 149.978Z" fill="#A6B7CB"/>
</g>
</svg>
