<svg width="316" height="203" viewBox="0 0 316 203" fill="none" xmlns="http://www.w3.org/2000/svg">
<path d="M0 17C0 7.61117 7.61116 0 17 0H299C308.389 0 316 7.61116 316 17V186C316 195.389 308.389 203 299 203H17C7.61116 203 0 195.389 0 186V17Z" fill="#D9B6BC"/>
<mask id="mask0_527_1964" style="mask-type:alpha" maskUnits="userSpaceOnUse" x="0" y="0" width="316" height="203">
<path d="M0 17C0 7.61117 7.61116 0 17 0H299C308.389 0 316 7.61116 316 17V186C316 195.389 308.389 203 299 203H17C7.61116 203 0 195.389 0 186V17Z" fill="#D9B6BC"/>
</mask>
<g mask="url(#mask0_527_1964)">
<path fill-rule="evenodd" clip-rule="evenodd" d="M228.268 163.739C232.452 178.442 230.447 196.28 221.209 208.477C211.73 220.99 189.611 216.756 179.204 228.511C168.436 240.676 178.706 268.723 163.294 273.898C147.399 279.236 137.637 248.976 120.894 248.092C103.62 247.181 91.093 272.908 74.2006 269.196C59.3583 265.935 53.2848 246.656 48.6297 232.215C44.3727 219.009 45.8298 204.618 49.03 191.114C51.7079 179.814 65.5351 172.521 65.5278 160.911C65.5162 142.316 42.2772 125.723 48.9784 108.369C54.5037 94.0605 76.4846 94.3588 91.7777 92.9321C105.451 91.6566 117.987 101.106 131.712 100.651C147.516 100.128 162.84 83.8369 177.35 90.0996C191.287 96.1148 190.132 117.115 198.757 129.588C207.421 142.118 224.1 149.092 228.268 163.739Z" fill="#C69CA4"/>
</g>
</svg>
