<svg width="316" height="203" viewBox="0 0 316 203" fill="none" xmlns="http://www.w3.org/2000/svg">
<path d="M0 17C0 7.61117 7.61116 0 17 0H299C308.389 0 316 7.61116 316 17V186C316 195.389 308.389 203 299 203H17C7.61116 203 0 195.389 0 186V17Z" fill="#CBB6D9"/>
<mask id="mask0_527_1957" style="mask-type:alpha" maskUnits="userSpaceOnUse" x="0" y="0" width="316" height="203">
<path d="M0 17C0 7.61117 7.61116 0 17 0H299C308.389 0 316 7.61116 316 17V186C316 195.389 308.389 203 299 203H17C7.61116 203 0 195.389 0 186V17Z" fill="#CBB6D9"/>
</mask>
<g mask="url(#mask0_527_1957)">
<path d="M349.09 76.2715C350.345 78.0741 351.664 79.8133 352.846 81.6669C356.164 86.8727 358.664 92.5554 360.26 98.5158C361.205 102.278 361.329 106.197 360.625 110.005C360.02 113.539 358.474 116.71 357.498 120.101C357.279 120.855 356.894 121.578 356.737 122.343C356.081 124.863 354.727 127.143 352.831 128.922C350.533 131.383 348.03 133.643 345.348 135.679C343.388 137.347 341.565 139.171 339.896 141.132C335.929 145.15 332.11 149.302 328.236 153.401C324.361 157.5 320.368 162.028 316.711 166.595C311.074 173.632 305.02 180.305 298.865 186.884C295.21 190.777 291.468 194.492 287.638 198.342C285.38 200.57 283.033 202.695 280.669 204.796C274.789 210.162 268.481 215.041 261.809 219.383C255.879 223.37 249.318 226.326 242.399 228.127C238.45 229.1 234.399 229.61 230.329 229.649C228.159 229.663 225.992 229.464 223.859 229.056C220.87 228.571 218.013 227.471 215.467 225.823C212.922 224.176 210.744 222.019 209.073 219.487C207.244 216.6 206.448 213.18 206.817 209.788C207.157 205.925 208.404 202.2 210.456 198.916C215.027 191.603 220.489 184.889 226.717 178.929C231.502 174.202 236.308 169.497 241.135 164.813C242.831 163.159 244.645 161.623 246.45 160.074C251.507 155.771 256.677 151.607 261.607 147.174C265.765 143.495 269.683 139.551 273.335 135.367C275.355 133.041 276.983 130.401 278.157 127.55C278.542 126.525 278.817 125.461 278.976 124.376C279.014 124.179 279.013 123.977 278.972 123.78C278.93 123.584 278.85 123.398 278.735 123.233C278.62 123.068 278.473 122.928 278.304 122.821C278.134 122.714 277.944 122.642 277.746 122.61C276.282 122.359 274.789 122.33 273.317 122.526C268.828 123.267 264.361 124.119 259.844 124.715C255.829 125.253 251.78 125.505 247.732 125.865C246.437 125.984 245.161 126.053 243.882 126.143C238.926 126.391 233.957 126.063 229.073 125.165C225.653 124.564 222.32 123.532 219.155 122.093C217.469 121.482 215.957 120.465 214.754 119.132C214.572 118.898 214.337 118.712 214.068 118.59C211.731 117.577 210.789 115.52 210.058 113.298C209.262 111.027 209.254 108.556 210.036 106.286C211.098 103.379 212.894 100.799 215.249 98.7967C218.25 96.0529 221.601 93.7196 225.216 91.8575C229.022 89.9306 233.042 88.4575 237.194 87.4686C242.984 86.0161 248.849 84.8747 254.762 84.0492C260.689 83.3115 266.556 82.1649 272.322 80.6176C274.44 80.0926 276.459 79.228 278.3 78.0571C278.797 77.7332 279.263 77.3658 279.694 76.9592C279.96 76.7272 280.135 76.4079 280.187 76.0581C280.239 75.7084 280.165 75.3509 279.979 75.0497C279.493 74.1821 278.81 73.4414 277.984 72.8882C276.599 71.9441 275.123 71.1418 273.579 70.4936C270.983 69.3698 268.361 68.2092 265.636 67.212C264.335 66.6977 262.969 66.4288 261.664 65.9353C257.312 64.2505 253.116 62.1817 249.127 59.7534C244.44 56.9542 239.597 54.4269 234.818 51.7825C232.577 50.4903 230.437 49.0281 228.418 47.4087C224.97 44.7996 222.647 40.9693 221.928 36.7067C221.257 34.3206 220.966 31.8448 221.064 29.3706C221.555 25.3874 222.243 21.5042 225.29 18.509C226.265 17.5272 227.393 16.7109 228.631 16.0921C234.165 13.3174 240.419 12.304 246.557 13.1877C259.178 14.8581 271.458 18.54 282.93 24.0938C288.344 26.6602 293.719 29.3268 298.824 32.3088C305.144 35.8794 311.273 39.7794 317.186 43.9929C322.859 48.1882 328.258 52.7418 333.352 57.6259C336.865 61.0055 340.225 64.5288 343.39 68.2418C345.508 70.7364 347.334 73.4889 349.297 76.127L349.09 76.2715Z" fill="#BAA0CB"/>
</g>
</svg>
