<svg width="390" height="844" viewBox="0 0 390 844" fill="none" xmlns="http://www.w3.org/2000/svg">
<g clip-path="url(#clip0_380_2119)">
<rect width="390" height="844" fill="white"/>
<g filter="url(#filter0_f_380_2119)">
<path d="M143.352 132H140.664L140.448 130.056C140.016 130.712 139.368 131.264 138.504 131.712C137.656 132.144 136.632 132.36 135.432 132.36C133.064 132.36 131.056 131.552 129.408 129.936C127.76 128.32 126.936 126.176 126.936 123.504C126.936 120.848 127.784 118.704 129.48 117.072C131.192 115.44 133.248 114.624 135.648 114.624C137.728 114.624 139.424 115.128 140.736 116.136C142.064 117.144 142.96 118.384 143.424 119.856L140.256 120.984C140 120.104 139.48 119.344 138.696 118.704C137.928 118.048 136.912 117.72 135.648 117.72C134.208 117.72 132.952 118.216 131.88 119.208C130.824 120.2 130.296 121.632 130.296 123.504C130.296 125.344 130.808 126.776 131.832 127.8C132.872 128.824 134.152 129.336 135.672 129.336C137.08 129.336 138.16 128.984 138.912 128.28C139.664 127.56 140.104 126.808 140.232 126.024H134.856V123.144H143.352V132ZM145.734 128.784C145.734 127.776 146.062 126.968 146.718 126.36C147.374 125.752 148.222 125.368 149.262 125.208L152.166 124.776C152.758 124.696 153.054 124.416 153.054 123.936C153.054 123.488 152.878 123.12 152.526 122.832C152.19 122.544 151.702 122.4 151.062 122.4C150.39 122.4 149.854 122.584 149.454 122.952C149.07 123.32 148.854 123.776 148.806 124.32L145.974 123.72C146.086 122.696 146.59 121.792 147.486 121.008C148.382 120.224 149.566 119.832 151.038 119.832C152.798 119.832 154.094 120.256 154.926 121.104C155.758 121.936 156.174 123.008 156.174 124.32V130.128C156.174 130.832 156.222 131.456 156.318 132H153.39C153.31 131.648 153.27 131.176 153.27 130.584C152.518 131.752 151.358 132.336 149.79 132.336C148.574 132.336 147.59 131.984 146.838 131.28C146.102 130.576 145.734 129.744 145.734 128.784ZM150.462 129.96C151.214 129.96 151.83 129.752 152.31 129.336C152.806 128.904 153.054 128.2 153.054 127.224V126.696L150.39 127.104C149.414 127.248 148.926 127.744 148.926 128.592C148.926 128.976 149.062 129.304 149.334 129.576C149.606 129.832 149.982 129.96 150.462 129.96ZM162.584 132H159.392V120.192H162.44V121.632C162.744 121.088 163.224 120.656 163.88 120.336C164.536 120.016 165.208 119.856 165.896 119.856C167.608 119.856 168.776 120.512 169.4 121.824C170.248 120.512 171.496 119.856 173.144 119.856C174.344 119.856 175.352 120.232 176.168 120.984C177 121.736 177.416 122.856 177.416 124.344V132H174.32V124.992C174.32 124.32 174.144 123.784 173.792 123.384C173.456 122.968 172.936 122.76 172.232 122.76C171.576 122.76 171.048 122.984 170.648 123.432C170.248 123.88 170.048 124.432 170.048 125.088V132H166.88V124.992C166.88 124.32 166.704 123.784 166.352 123.384C166 122.968 165.48 122.76 164.792 122.76C164.12 122.76 163.584 122.984 163.184 123.432C162.784 123.864 162.584 124.416 162.584 125.088V132ZM182.977 124.752H188.257C188.225 124.096 187.985 123.544 187.537 123.096C187.105 122.648 186.465 122.424 185.617 122.424C184.849 122.424 184.225 122.664 183.745 123.144C183.265 123.624 183.009 124.16 182.977 124.752ZM188.569 127.824L191.233 128.616C190.913 129.704 190.281 130.6 189.337 131.304C188.409 132.008 187.249 132.36 185.857 132.36C184.161 132.36 182.721 131.792 181.537 130.656C180.353 129.504 179.761 127.968 179.761 126.048C179.761 124.224 180.337 122.736 181.489 121.584C182.641 120.416 184.001 119.832 185.569 119.832C187.393 119.832 188.817 120.376 189.841 121.464C190.881 122.552 191.401 124.048 191.401 125.952C191.401 126.08 191.393 126.224 191.377 126.384C191.377 126.544 191.377 126.672 191.377 126.768L191.353 126.936H182.905C182.937 127.704 183.241 128.344 183.817 128.856C184.393 129.368 185.081 129.624 185.881 129.624C187.241 129.624 188.137 129.024 188.569 127.824ZM219.069 132H215.805V120.072L210.909 132H208.149L203.253 120.168V132H200.085V114.984H204.453L209.565 127.272L214.557 114.984H219.069V132ZM225.817 128.568C226.409 129.16 227.121 129.456 227.953 129.456C228.785 129.456 229.489 129.16 230.065 128.568C230.657 127.976 230.953 127.152 230.953 126.096C230.953 125.04 230.657 124.216 230.065 123.624C229.489 123.032 228.785 122.736 227.953 122.736C227.121 122.736 226.409 123.032 225.817 123.624C225.241 124.216 224.953 125.04 224.953 126.096C224.953 127.152 225.241 127.976 225.817 128.568ZM223.513 121.608C224.697 120.424 226.177 119.832 227.953 119.832C229.729 119.832 231.201 120.424 232.369 121.608C233.553 122.792 234.145 124.288 234.145 126.096C234.145 127.904 233.553 129.4 232.369 130.584C231.201 131.768 229.729 132.36 227.953 132.36C226.177 132.36 224.697 131.768 223.513 130.584C222.345 129.4 221.761 127.904 221.761 126.096C221.761 124.288 222.345 122.792 223.513 121.608ZM247.921 114.624V129.864C247.921 130.648 247.953 131.36 248.017 132H244.969C244.889 131.6 244.849 131.144 244.849 130.632C244.577 131.128 244.145 131.528 243.553 131.832C242.977 132.136 242.305 132.288 241.537 132.288C239.857 132.288 238.473 131.704 237.385 130.536C236.313 129.352 235.777 127.864 235.777 126.072C235.777 124.328 236.305 122.864 237.361 121.68C238.433 120.496 239.793 119.904 241.441 119.904C243.137 119.904 244.249 120.392 244.777 121.368V114.624H247.921ZM238.993 126.072C238.993 127.112 239.265 127.936 239.809 128.544C240.353 129.136 241.057 129.432 241.921 129.432C242.769 129.432 243.465 129.128 244.009 128.52C244.553 127.912 244.825 127.088 244.825 126.048C244.825 125.024 244.553 124.224 244.009 123.648C243.465 123.056 242.769 122.76 241.921 122.76C241.073 122.76 240.369 123.056 239.809 123.648C239.265 124.24 238.993 125.048 238.993 126.072ZM253.712 124.752H258.992C258.96 124.096 258.72 123.544 258.272 123.096C257.84 122.648 257.2 122.424 256.352 122.424C255.584 122.424 254.96 122.664 254.48 123.144C254 123.624 253.744 124.16 253.712 124.752ZM259.304 127.824L261.968 128.616C261.648 129.704 261.016 130.6 260.072 131.304C259.144 132.008 257.984 132.36 256.592 132.36C254.896 132.36 253.456 131.792 252.272 130.656C251.088 129.504 250.496 127.968 250.496 126.048C250.496 124.224 251.072 122.736 252.224 121.584C253.376 120.416 254.736 119.832 256.304 119.832C258.128 119.832 259.552 120.376 260.576 121.464C261.616 122.552 262.136 124.048 262.136 125.952C262.136 126.08 262.128 126.224 262.112 126.384C262.112 126.544 262.112 126.672 262.112 126.768L262.088 126.936H253.64C253.672 127.704 253.976 128.344 254.552 128.856C255.128 129.368 255.816 129.624 256.616 129.624C257.976 129.624 258.872 129.024 259.304 127.824Z" fill="black"/>
</g>
<g filter="url(#filter1_f_380_2119)">
<path d="M157.04 156.52H156.92L156.52 156.32C156.387 156.12 156.307 155.9 156.28 155.66C156.333 155.38 156.527 155.087 156.86 154.78C157.207 154.46 157.5 154.173 157.74 153.92C157.993 153.653 158.307 153.52 158.68 153.52L159.06 153.72C159.193 153.867 159.26 154.06 159.26 154.3C159.26 154.553 158.713 155.227 157.62 156.32C157.46 156.453 157.267 156.52 157.04 156.52ZM171.28 156.48C171.227 156.48 170.867 156.3 170.2 155.94C169.667 155.473 169.36 154.913 169.28 154.26L169.48 153.86C169.64 153.74 169.88 153.68 170.2 153.68L170.58 153.86C170.753 152.767 170.847 151.853 170.86 151.12H168.8C168.307 151.053 168.06 150.74 168.06 150.18L168.26 149.78C168.673 149.607 169.013 149.52 169.28 149.52C169.653 149.573 169.953 149.6 170.18 149.6L170.7 149.58C170.62 148.94 170.333 148.373 169.84 147.88C169.667 147.667 169.58 147.467 169.58 147.28C169.58 147.093 169.673 146.913 169.86 146.74C170.06 146.553 170.26 146.373 170.46 146.2L170.08 146.22C169.653 146.22 169.267 146.133 168.92 145.96C168.8 145.8 168.74 145.607 168.74 145.38C168.74 145.313 168.8 145.14 168.92 144.86L169.32 144.66C171.52 144.66 172.773 144.693 173.08 144.76C173.28 144.8 173.38 144.94 173.38 145.18C173.38 145.313 173.347 145.48 173.28 145.68L171.68 147.2C171.987 147.933 172.167 148.727 172.22 149.58L172.78 149.56C173.38 149.56 173.86 149.647 174.22 149.82C174.353 150.007 174.42 150.253 174.42 150.56L174.22 150.96C174.06 151.093 173.867 151.16 173.64 151.16L172.38 151.12C172.22 154.693 171.853 156.48 171.28 156.48ZM165.68 156C165.6 156 165.147 155.767 164.32 155.3C163.907 154.873 163.687 154.373 163.66 153.8L163.84 153.42C164 153.287 164.24 153.22 164.56 153.22L164.94 153.42C165.26 152.513 165.44 150.52 165.48 147.44L163.92 147.36C163.707 149.187 163.213 150.947 162.44 152.64C162.28 152.787 162.047 152.86 161.74 152.86L161.34 152.64C161.22 152.453 161.16 152.207 161.16 151.9C162.133 149.607 162.68 146.767 162.8 143.38L161.16 143.46C160.667 143.393 160.42 143.12 160.42 142.64C160.42 142.56 160.48 142.38 160.6 142.1C160.907 141.953 161.24 141.88 161.6 141.88L162.18 141.9C162.46 141.9 162.727 141.88 162.98 141.84L162.94 140C163.007 139.507 163.32 139.26 163.88 139.26L164.28 139.46C164.48 139.687 164.58 139.927 164.58 140.18L164.56 141.8H165.88C166.32 141.8 166.72 141.893 167.08 142.08C167.213 142.227 167.28 142.46 167.28 142.78L167.08 143.18C166.88 143.34 166.647 143.42 166.38 143.42L164.32 143.34L164.16 145.88C165.56 145.88 166.433 145.893 166.78 145.92C167.033 145.933 167.16 146.173 167.16 146.64C167.16 146.813 167.14 147.02 167.1 147.26C166.967 150.9 166.827 153.033 166.68 153.66C166.533 154.273 166.38 154.853 166.22 155.4C166.087 155.8 165.907 156 165.68 156ZM158.86 145.76H158.76L156.8 145.52C156.307 145.453 156.06 145.14 156.06 144.58L156.26 144.2C156.447 144.107 156.72 144.06 157.08 144.06C157.667 144.06 158.473 144.173 159.5 144.4C159.62 144.573 159.68 144.82 159.68 145.14L159.5 145.52C159.313 145.68 159.1 145.76 158.86 145.76ZM167.54 145.68H167.44L167.06 145.48C166.927 145.333 166.86 145.1 166.86 144.78C167.727 143.033 168.273 141.3 168.5 139.58C168.647 139.447 168.88 139.38 169.2 139.38L169.58 139.58C169.74 139.833 169.82 140.153 169.82 140.54C169.82 140.753 169.767 141.12 169.66 141.64L173.12 141.6L173.52 141.8C173.653 141.96 173.72 142.193 173.72 142.5L173.52 142.92C173.227 143.093 172.893 143.187 172.52 143.2L169.2 143.18C168.907 144.033 168.567 144.787 168.18 145.44C168.007 145.6 167.793 145.68 167.54 145.68ZM159.28 142.1H159.14C157.807 141.74 156.933 141.48 156.52 141.32C156.36 141.133 156.28 140.887 156.28 140.58L156.48 140.2C156.693 140.053 156.94 139.98 157.22 139.98L157.46 140C158.713 140.267 159.513 140.527 159.86 140.78C159.993 140.967 160.06 141.213 160.06 141.52L159.86 141.92C159.7 142.04 159.507 142.1 159.28 142.1ZM192.2 156.68C192.04 156.68 191.853 156.6 191.64 156.44C191.067 155.413 190.54 154.267 190.06 153C188.527 154.72 187.553 155.58 187.14 155.58C187.073 155.58 186.9 155.52 186.62 155.4C186.487 155.24 186.42 155 186.42 154.68C186.66 154.187 186.987 153.767 187.4 153.42C188.027 152.887 188.747 152.133 189.56 151.16C189.067 148.493 188.66 146.407 188.34 144.9L185.26 145.14L184.86 144.94C184.727 144.753 184.66 144.507 184.66 144.2L184.86 143.8C185.327 143.627 185.833 143.527 186.38 143.5C186.927 143.473 187.46 143.433 187.98 143.38C187.793 142.02 187.68 140.92 187.64 140.08L187.84 139.68C188.013 139.56 188.26 139.5 188.58 139.5L188.96 139.68C189.147 140.253 189.26 140.847 189.3 141.46C189.34 142.073 189.413 142.687 189.52 143.3L193.12 143.14L193.52 143.34C193.653 143.5 193.72 143.733 193.72 144.04L193.52 144.44C193 144.667 192.427 144.78 191.8 144.78C191.173 144.78 190.54 144.793 189.9 144.82C190.033 145.713 190.187 146.52 190.36 147.24C190.533 147.947 190.673 148.68 190.78 149.44C191.22 148.947 191.6 148.44 191.92 147.92C192.093 147.787 192.34 147.72 192.66 147.72L193.04 147.92C193.173 148.067 193.24 148.3 193.24 148.62C193.08 148.953 192.887 149.273 192.66 149.58C192.447 149.873 191.98 150.513 191.26 151.5C191.433 152.313 191.713 153.153 192.1 154.02L192.54 153.44C192.7 153.307 192.933 153.24 193.24 153.24L193.64 153.44C193.76 153.613 193.82 153.86 193.82 154.18C193.62 154.54 193.427 154.913 193.24 155.3C193.053 155.7 192.853 156.067 192.64 156.4C192.52 156.587 192.373 156.68 192.2 156.68ZM178.02 154.68H177.9L177.5 154.5C177.367 154.34 177.3 154.1 177.3 153.78L177.5 153.4C178.433 152.533 179.187 151.393 179.76 149.98C179.48 149.433 179.127 148.913 178.7 148.42C178.287 147.927 177.993 147.38 177.82 146.78L178 146.38C178.16 146.26 178.4 146.2 178.72 146.2L179.1 146.38L180.56 148.26C180.853 147.553 181.147 146.853 181.44 146.16C181.747 145.453 182 144.72 182.2 143.96L176.96 144.2L176.56 144C176.4 143.827 176.32 143.58 176.32 143.26L176.52 142.88C176.893 142.653 177.313 142.54 177.78 142.54L183.52 142.42C183.933 142.42 184.14 142.607 184.14 142.98C184.14 143.14 184.107 143.327 184.04 143.54C183.707 144.607 183.313 145.66 182.86 146.7C182.42 147.74 182.007 148.793 181.62 149.86C182.06 150.513 182.527 151.16 183.02 151.8C183.513 152.44 183.88 153.14 184.12 153.9L183.92 154.3C183.747 154.433 183.5 154.5 183.18 154.5L182.8 154.3C182.533 153.807 182.22 153.32 181.86 152.84C181.513 152.36 181.187 151.887 180.88 151.42C180.613 151.86 180.34 152.293 180.06 152.72C179.78 153.147 179.32 153.727 178.68 154.46C178.493 154.607 178.273 154.68 178.02 154.68ZM192.1 142.84C191.9 142.8 191.72 142.713 191.56 142.58C191.333 142.087 191.073 141.713 190.78 141.46C190.5 141.193 190.36 140.9 190.36 140.58L190.54 140.2C190.727 140.067 190.973 140 191.28 140C191.933 140.573 192.36 141 192.56 141.28C192.76 141.547 192.873 141.847 192.9 142.18L192.7 142.58C192.513 142.713 192.313 142.8 192.1 142.84ZM200.06 156.88C199.833 156.853 199.647 156.773 199.5 156.64L199.3 156.24L199.14 146.12C198.78 146.973 198.447 147.833 198.14 148.7C197.847 149.553 197.5 150.4 197.1 151.24C196.927 151.36 196.68 151.42 196.36 151.42L195.98 151.24C195.847 151.08 195.78 150.84 195.78 150.52C196.247 149.347 196.687 148.167 197.1 146.98C197.527 145.78 198.013 144.607 198.56 143.46L196.68 143.54L196.22 143.3C196.087 143.127 196.02 142.887 196.02 142.58L196.22 142.18C196.633 142.033 197.067 141.953 197.52 141.94C197.973 141.927 198.433 141.92 198.9 141.92L198.76 139.78C198.8 139.26 199.14 139 199.78 139L200.18 139.2C200.327 139.627 200.4 140.04 200.4 140.44C200.4 141.067 200.413 141.573 200.44 141.96H202.6L202.98 142.14C203.113 142.3 203.18 142.54 203.18 142.86L202.98 143.26C202.807 143.393 202.613 143.473 202.4 143.5H200.48C200.987 144.1 201.413 144.62 201.76 145.06C202.107 145.5 202.553 145.953 203.1 146.42C203.26 146.607 203.34 146.853 203.34 147.16L203.14 147.56C202.993 147.693 202.76 147.76 202.44 147.76L201.94 147.48L200.68 146.2L200.84 156.24L200.64 156.64C200.467 156.773 200.273 156.853 200.06 156.88ZM203.84 156.96L203.46 156.76C203.327 156.6 203.26 156.367 203.26 156.06L203.46 155.66C203.847 155.46 204.227 155.22 204.6 154.94C205.507 154.26 206.06 153.613 206.26 153C205.713 152.973 205.153 152.953 204.58 152.94C204.02 152.913 203.487 152.813 202.98 152.64C202.86 152.48 202.8 152.287 202.8 152.06C202.8 151.993 202.86 151.82 202.98 151.54C203.327 151.393 203.7 151.32 204.1 151.32L207.2 151.46C207.387 151.1 207.507 150.713 207.56 150.3L204.94 150.38C204.567 150.367 204.327 150.207 204.22 149.9C204.127 149.593 204.013 148.033 203.88 145.22C203.907 144.713 204.033 144.453 204.26 144.44C204.953 144.44 206.373 144.467 208.52 144.52C210.68 144.56 211.907 144.607 212.2 144.66C212.507 144.713 212.66 145.007 212.66 145.54V145.76C212.527 148.187 212.433 149.587 212.38 149.96C212.34 150.227 212.113 150.36 211.7 150.36C211.54 150.36 211.353 150.34 211.14 150.3H209.2C209.067 150.66 208.96 151.047 208.88 151.46H212.22C212.82 151.46 213.12 151.733 213.12 152.28V152.4L212.92 152.8C212.693 152.96 212.42 153.04 212.1 153.04L209.66 153C210.927 153.733 212.433 154.533 214.18 155.4C214.313 155.547 214.38 155.78 214.38 156.1L214.18 156.48C213.993 156.613 213.747 156.68 213.44 156.68C211.76 155.907 209.84 154.92 207.68 153.72C207.413 154.213 207.093 154.66 206.72 155.06C206.347 155.46 205.933 155.847 205.48 156.22C205.04 156.607 204.493 156.853 203.84 156.96ZM205.68 148.76L210.94 148.74L211.02 148.1H205.64L205.68 148.76ZM211.06 146.58V146.12L205.52 146.04L205.56 146.58H211.06ZM206.5 144.36C206.3 144.333 206.12 144.253 205.96 144.12C205.747 143.733 205.64 143.307 205.64 142.84C205.4 142.787 205.16 142.76 204.92 142.76L204.44 142.78C204.16 142.78 203.9 142.7 203.66 142.54C203.527 142.38 203.46 142.147 203.46 141.84L203.66 141.44C204.073 141.293 204.507 141.22 204.96 141.22L205.44 141.24L205.38 140.36C205.407 140.147 205.48 139.96 205.6 139.8C205.8 139.667 206.047 139.6 206.34 139.6L206.74 139.8C206.9 140.213 206.98 140.72 206.98 141.32H209.56C209.6 140.707 209.747 140.113 210 139.54C210.16 139.407 210.393 139.34 210.7 139.34L211.1 139.54C211.233 139.713 211.3 139.913 211.3 140.14C211.3 140.207 211.247 140.587 211.14 141.28H212.78L213.16 141.48C213.293 141.64 213.36 141.873 213.36 142.18L213.16 142.58C212.987 142.713 212.793 142.8 212.58 142.84L210.82 142.88C210.82 143.293 210.713 143.667 210.5 144C210.353 144.133 210.12 144.2 209.8 144.2L209.4 144C209.267 143.827 209.2 143.62 209.2 143.38C209.2 143.313 209.227 143.147 209.28 142.88H207.16L207.32 143.74L207.12 144.12C206.947 144.253 206.74 144.333 206.5 144.36ZM231.1 156.3C230.94 156.3 230.753 156.22 230.54 156.06C229.26 153.967 228.36 151.953 227.84 150.02C227.333 148.087 226.787 146.12 226.2 144.12L218.24 144.4C217.747 144.333 217.5 144.02 217.5 143.46L217.7 143.06C218.06 142.9 218.44 142.82 218.84 142.82L219.22 142.84L225.76 142.58C225.653 141.98 225.547 141.44 225.44 140.96C225.347 140.48 225.273 139.993 225.22 139.5L225.42 139.1C225.567 138.967 225.8 138.9 226.12 138.9L226.5 139.1C226.74 139.647 226.9 140.213 226.98 140.8C227.073 141.387 227.187 141.967 227.32 142.54L231.56 142.46L231.96 142.66C232.08 142.82 232.14 143.06 232.14 143.38L231.96 143.76C231.747 143.92 231.52 144.013 231.28 144.04H227.76C228.307 145.867 228.813 147.607 229.28 149.26C229.747 150.913 230.353 152.607 231.1 154.34L231.88 153.32C232.027 153.187 232.26 153.12 232.58 153.12L232.96 153.32C233.093 153.507 233.16 153.753 233.16 154.06C232.267 155.113 231.713 155.787 231.5 156.08C231.393 156.227 231.26 156.3 231.1 156.3ZM217.92 155.08C217.427 155.013 217.18 154.7 217.18 154.14L217.38 153.74C217.98 153.593 218.6 153.5 219.24 153.46C219.893 153.42 220.533 153.333 221.16 153.2V148.58H219.88C219.44 148.58 219.053 148.473 218.72 148.26C218.587 148.1 218.52 147.867 218.52 147.56L218.72 147.16C218.893 147.027 219.093 146.96 219.32 146.96C219.467 146.973 221.3 147.027 224.82 147.12L225.22 147.32C225.353 147.493 225.42 147.727 225.42 148.02L225.22 148.42C225.033 148.553 224.833 148.633 224.62 148.66H222.68V153.04L225.92 153C226.493 153 226.78 153.273 226.78 153.82V153.94L226.58 154.34C226.367 154.5 226.12 154.58 225.84 154.58C223.107 154.62 221.32 154.7 220.48 154.82C219.64 154.94 218.787 155.027 217.92 155.08ZM230.06 142H229.94C229.393 141.427 228.913 140.993 228.5 140.7C228.367 140.513 228.287 140.307 228.26 140.08C228.327 139.587 228.653 139.34 229.24 139.34L229.62 139.54C229.86 139.82 230.12 140.107 230.4 140.4C230.68 140.68 230.833 141.013 230.86 141.4L230.66 141.8C230.513 141.933 230.313 142 230.06 142Z" fill="black"/>
</g>
<g filter="url(#filter2_f_380_2119)">
<rect x="58" y="185" width="273" height="474" rx="24" fill="#BCAFEF"/>
</g>
<g filter="url(#filter3_f_380_2119)">
<path d="M94.1247 310L92.7087 306.112H85.7967L84.3807 310H80.8767L87.4047 292.984H91.2447L97.7247 310H94.1247ZM89.2527 296.656L86.9007 303.088H91.6047L89.2527 296.656ZM102.806 303.208V310H99.6142V298.192H102.71V299.656C103.046 299.08 103.526 298.64 104.15 298.336C104.774 298.032 105.43 297.88 106.118 297.88C107.51 297.88 108.566 298.32 109.286 299.2C110.022 300.064 110.39 301.184 110.39 302.56V310H107.198V303.112C107.198 302.408 107.014 301.84 106.646 301.408C106.294 300.976 105.75 300.76 105.014 300.76C104.342 300.76 103.806 300.992 103.406 301.456C103.006 301.92 102.806 302.504 102.806 303.208ZM112.622 306.712L115.358 306.112C115.39 306.624 115.59 307.056 115.958 307.408C116.342 307.744 116.862 307.912 117.518 307.912C118.014 307.912 118.398 307.8 118.67 307.576C118.942 307.352 119.078 307.072 119.078 306.736C119.078 306.144 118.654 305.76 117.806 305.584L116.246 305.224C115.142 304.984 114.31 304.552 113.75 303.928C113.206 303.304 112.934 302.56 112.934 301.696C112.934 300.624 113.35 299.712 114.182 298.96C115.03 298.208 116.086 297.832 117.35 297.832C118.15 297.832 118.854 297.952 119.462 298.192C120.07 298.416 120.542 298.712 120.878 299.08C121.214 299.432 121.47 299.792 121.646 300.16C121.822 300.528 121.934 300.888 121.982 301.24L119.318 301.84C119.254 301.424 119.062 301.056 118.742 300.736C118.438 300.416 117.982 300.256 117.374 300.256C116.958 300.256 116.598 300.368 116.294 300.592C116.006 300.816 115.862 301.096 115.862 301.432C115.862 302.008 116.222 302.36 116.942 302.488L118.622 302.848C119.758 303.088 120.622 303.528 121.214 304.168C121.822 304.808 122.126 305.576 122.126 306.472C122.126 307.528 121.726 308.44 120.926 309.208C120.126 309.976 118.998 310.36 117.542 310.36C116.71 310.36 115.966 310.24 115.31 310C114.654 309.744 114.142 309.424 113.774 309.04C113.422 308.64 113.15 308.248 112.958 307.864C112.782 307.464 112.67 307.08 112.622 306.712ZM131.201 298.192H134.561L137.105 305.8L139.289 298.192H142.457L138.761 310H135.569L132.809 301.936L130.097 310H126.857L123.089 298.192H126.449L128.633 305.776L131.201 298.192ZM146.473 302.752H151.753C151.721 302.096 151.481 301.544 151.033 301.096C150.601 300.648 149.961 300.424 149.113 300.424C148.345 300.424 147.721 300.664 147.241 301.144C146.761 301.624 146.505 302.16 146.473 302.752ZM152.065 305.824L154.729 306.616C154.409 307.704 153.777 308.6 152.833 309.304C151.905 310.008 150.745 310.36 149.353 310.36C147.657 310.36 146.217 309.792 145.033 308.656C143.849 307.504 143.257 305.968 143.257 304.048C143.257 302.224 143.833 300.736 144.985 299.584C146.137 298.416 147.497 297.832 149.065 297.832C150.889 297.832 152.313 298.376 153.337 299.464C154.377 300.552 154.897 302.048 154.897 303.952C154.897 304.08 154.889 304.224 154.873 304.384C154.873 304.544 154.873 304.672 154.873 304.768L154.849 304.936H146.401C146.433 305.704 146.737 306.344 147.313 306.856C147.889 307.368 148.577 307.624 149.377 307.624C150.737 307.624 151.633 307.024 152.065 305.824ZM164.611 298.144V301.36C164.291 301.296 163.971 301.264 163.651 301.264C162.739 301.264 162.003 301.528 161.443 302.056C160.883 302.568 160.603 303.416 160.603 304.6V310H157.411V298.192H160.507V299.944C161.083 298.712 162.203 298.096 163.867 298.096C164.043 298.096 164.291 298.112 164.611 298.144ZM178.788 310H175.5V299.584H171.756V297.352C172.876 297.336 173.812 297.056 174.564 296.512C175.316 295.952 175.772 295.256 175.932 294.424H178.788V310ZM185.921 298.264C185.361 299.144 185.081 300.464 185.081 302.224C185.081 303.984 185.361 305.304 185.921 306.184C186.449 307.032 187.233 307.456 188.273 307.456C189.297 307.456 190.073 307.032 190.601 306.184C191.177 305.32 191.465 304 191.465 302.224C191.465 300.448 191.177 299.128 190.601 298.264C190.073 297.416 189.297 296.992 188.273 296.992C187.233 296.992 186.449 297.416 185.921 298.264ZM183.137 307.768C182.225 306.376 181.769 304.528 181.769 302.224C181.769 299.92 182.225 298.072 183.137 296.68C184.305 294.936 186.017 294.064 188.273 294.064C190.529 294.064 192.233 294.936 193.385 296.68C194.313 298.088 194.777 299.936 194.777 302.224C194.777 304.512 194.313 306.36 193.385 307.768C192.233 309.512 190.529 310.384 188.273 310.384C186.017 310.384 184.305 309.512 183.137 307.768ZM214.675 314.56H211.555V308.824C210.947 309.8 209.851 310.288 208.267 310.288C206.603 310.288 205.227 309.704 204.139 308.536C203.051 307.352 202.507 305.864 202.507 304.072C202.507 302.312 203.027 300.848 204.067 299.68C205.123 298.496 206.491 297.904 208.171 297.904C209.099 297.904 209.851 298.08 210.427 298.432C211.019 298.768 211.419 299.144 211.627 299.56V298.192H214.675V314.56ZM206.539 301.648C205.995 302.24 205.723 303.048 205.723 304.072C205.723 305.096 205.995 305.912 206.539 306.52C207.099 307.128 207.803 307.432 208.651 307.432C209.499 307.432 210.195 307.128 210.739 306.52C211.299 305.912 211.579 305.096 211.579 304.072C211.579 303.048 211.299 302.24 210.739 301.648C210.195 301.056 209.499 300.76 208.651 300.76C207.803 300.76 207.099 301.056 206.539 301.648ZM225.725 310C225.661 309.68 225.629 309.256 225.629 308.728C225.325 309.256 224.869 309.656 224.261 309.928C223.669 310.184 223.037 310.312 222.365 310.312C220.973 310.312 219.877 309.872 219.077 308.992C218.277 308.096 217.877 306.984 217.877 305.656V298.192H221.069V305.008C221.069 305.712 221.253 306.288 221.621 306.736C221.989 307.168 222.525 307.384 223.229 307.384C223.917 307.384 224.461 307.176 224.861 306.76C225.261 306.328 225.461 305.76 225.461 305.056V298.192H228.653V307.864C228.653 308.616 228.693 309.328 228.773 310H225.725ZM234.341 302.752H239.621C239.589 302.096 239.349 301.544 238.901 301.096C238.469 300.648 237.829 300.424 236.981 300.424C236.213 300.424 235.589 300.664 235.109 301.144C234.629 301.624 234.373 302.16 234.341 302.752ZM239.933 305.824L242.597 306.616C242.277 307.704 241.645 308.6 240.701 309.304C239.773 310.008 238.613 310.36 237.221 310.36C235.525 310.36 234.085 309.792 232.901 308.656C231.717 307.504 231.125 305.968 231.125 304.048C231.125 302.224 231.701 300.736 232.853 299.584C234.005 298.416 235.365 297.832 236.933 297.832C238.757 297.832 240.181 298.376 241.205 299.464C242.245 300.552 242.765 302.048 242.765 303.952C242.765 304.08 242.757 304.224 242.741 304.384C242.741 304.544 242.741 304.672 242.741 304.768L242.717 304.936H234.269C234.301 305.704 234.605 306.344 235.181 306.856C235.757 307.368 236.445 307.624 237.245 307.624C238.605 307.624 239.501 307.024 239.933 305.824ZM244.27 306.712L247.006 306.112C247.038 306.624 247.238 307.056 247.606 307.408C247.99 307.744 248.51 307.912 249.166 307.912C249.662 307.912 250.046 307.8 250.318 307.576C250.59 307.352 250.726 307.072 250.726 306.736C250.726 306.144 250.302 305.76 249.454 305.584L247.894 305.224C246.79 304.984 245.958 304.552 245.398 303.928C244.854 303.304 244.582 302.56 244.582 301.696C244.582 300.624 244.998 299.712 245.83 298.96C246.678 298.208 247.734 297.832 248.998 297.832C249.798 297.832 250.502 297.952 251.11 298.192C251.718 298.416 252.19 298.712 252.526 299.08C252.862 299.432 253.118 299.792 253.294 300.16C253.47 300.528 253.582 300.888 253.63 301.24L250.966 301.84C250.902 301.424 250.71 301.056 250.39 300.736C250.086 300.416 249.63 300.256 249.022 300.256C248.606 300.256 248.246 300.368 247.942 300.592C247.654 300.816 247.51 301.096 247.51 301.432C247.51 302.008 247.87 302.36 248.59 302.488L250.27 302.848C251.406 303.088 252.27 303.528 252.862 304.168C253.47 304.808 253.774 305.576 253.774 306.472C253.774 307.528 253.374 308.44 252.574 309.208C251.774 309.976 250.646 310.36 249.19 310.36C248.358 310.36 247.614 310.24 246.958 310C246.302 309.744 245.79 309.424 245.422 309.04C245.07 308.64 244.798 308.248 244.606 307.864C244.43 307.464 244.318 307.08 244.27 306.712ZM260.277 294.664V298.192H262.653V301.024H260.277V305.968C260.277 306.464 260.389 306.816 260.613 307.024C260.837 307.232 261.189 307.336 261.669 307.336C262.101 307.336 262.429 307.304 262.653 307.24V309.88C262.189 310.072 261.589 310.168 260.853 310.168C259.701 310.168 258.789 309.848 258.117 309.208C257.445 308.552 257.109 307.656 257.109 306.52V301.024H254.973V298.192H255.573C256.165 298.192 256.613 298.024 256.917 297.688C257.237 297.336 257.397 296.88 257.397 296.32V294.664H260.277ZM268.556 310H265.364V298.192H268.556V310ZM264.98 294.328C264.98 293.784 265.172 293.32 265.556 292.936C265.94 292.536 266.404 292.336 266.948 292.336C267.492 292.336 267.956 292.528 268.34 292.912C268.724 293.296 268.916 293.768 268.916 294.328C268.916 294.856 268.724 295.312 268.34 295.696C267.956 296.08 267.492 296.272 266.948 296.272C266.404 296.272 265.94 296.08 265.556 295.696C265.172 295.312 264.98 294.856 264.98 294.328ZM275.142 306.568C275.734 307.16 276.446 307.456 277.278 307.456C278.11 307.456 278.814 307.16 279.39 306.568C279.982 305.976 280.278 305.152 280.278 304.096C280.278 303.04 279.982 302.216 279.39 301.624C278.814 301.032 278.11 300.736 277.278 300.736C276.446 300.736 275.734 301.032 275.142 301.624C274.566 302.216 274.278 303.04 274.278 304.096C274.278 305.152 274.566 305.976 275.142 306.568ZM272.838 299.608C274.022 298.424 275.502 297.832 277.278 297.832C279.054 297.832 280.526 298.424 281.694 299.608C282.878 300.792 283.47 302.288 283.47 304.096C283.47 305.904 282.878 307.4 281.694 308.584C280.526 309.768 279.054 310.36 277.278 310.36C275.502 310.36 274.022 309.768 272.838 308.584C271.67 307.4 271.086 305.904 271.086 304.096C271.086 302.288 271.67 300.792 272.838 299.608ZM289.181 303.208V310H285.989V298.192H289.085V299.656C289.421 299.08 289.901 298.64 290.525 298.336C291.149 298.032 291.805 297.88 292.493 297.88C293.885 297.88 294.941 298.32 295.661 299.2C296.397 300.064 296.765 301.184 296.765 302.56V310H293.573V303.112C293.573 302.408 293.389 301.84 293.021 301.408C292.669 300.976 292.125 300.76 291.389 300.76C290.717 300.76 290.181 300.992 289.781 301.456C289.381 301.92 289.181 302.504 289.181 303.208ZM298.997 306.712L301.733 306.112C301.765 306.624 301.965 307.056 302.333 307.408C302.717 307.744 303.237 307.912 303.893 307.912C304.389 307.912 304.773 307.8 305.045 307.576C305.317 307.352 305.453 307.072 305.453 306.736C305.453 306.144 305.029 305.76 304.181 305.584L302.621 305.224C301.517 304.984 300.685 304.552 300.125 303.928C299.581 303.304 299.309 302.56 299.309 301.696C299.309 300.624 299.725 299.712 300.557 298.96C301.405 298.208 302.461 297.832 303.725 297.832C304.525 297.832 305.229 297.952 305.837 298.192C306.445 298.416 306.917 298.712 307.253 299.08C307.589 299.432 307.845 299.792 308.021 300.16C308.197 300.528 308.309 300.888 308.357 301.24L305.693 301.84C305.629 301.424 305.437 301.056 305.117 300.736C304.813 300.416 304.357 300.256 303.749 300.256C303.333 300.256 302.973 300.368 302.669 300.592C302.381 300.816 302.237 301.096 302.237 301.432C302.237 302.008 302.597 302.36 303.317 302.488L304.997 302.848C306.133 303.088 306.997 303.528 307.589 304.168C308.197 304.808 308.501 305.576 308.501 306.472C308.501 307.528 308.101 308.44 307.301 309.208C306.501 309.976 305.373 310.36 303.917 310.36C303.085 310.36 302.341 310.24 301.685 310C301.029 309.744 300.517 309.424 300.149 309.04C299.797 308.64 299.525 308.248 299.333 307.864C299.157 307.464 299.045 307.08 298.997 306.712ZM99.5802 366.928H102.22C103.708 366.928 104.932 366.464 105.892 365.536C106.852 364.608 107.332 363.264 107.332 361.504C107.332 359.744 106.852 358.4 105.892 357.472C104.932 356.528 103.716 356.056 102.244 356.056H99.5802V366.928ZM102.34 370H96.2682V352.984H102.364C104.844 352.984 106.86 353.744 108.412 355.264C109.98 356.784 110.764 358.864 110.764 361.504C110.764 364.128 109.98 366.2 108.412 367.72C106.844 369.24 104.82 370 102.34 370ZM116.634 366.568C117.226 367.16 117.938 367.456 118.77 367.456C119.602 367.456 120.306 367.16 120.882 366.568C121.474 365.976 121.77 365.152 121.77 364.096C121.77 363.04 121.474 362.216 120.882 361.624C120.306 361.032 119.602 360.736 118.77 360.736C117.938 360.736 117.226 361.032 116.634 361.624C116.058 362.216 115.77 363.04 115.77 364.096C115.77 365.152 116.058 365.976 116.634 366.568ZM114.33 359.608C115.514 358.424 116.994 357.832 118.77 357.832C120.546 357.832 122.018 358.424 123.186 359.608C124.37 360.792 124.962 362.288 124.962 364.096C124.962 365.904 124.37 367.4 123.186 368.584C122.018 369.768 120.546 370.36 118.77 370.36C116.994 370.36 115.514 369.768 114.33 368.584C113.162 367.4 112.578 365.904 112.578 364.096C112.578 362.288 113.162 360.792 114.33 359.608ZM130.673 363.208V370H127.481V358.192H130.577V359.656C130.913 359.08 131.393 358.64 132.017 358.336C132.641 358.032 133.297 357.88 133.985 357.88C135.377 357.88 136.433 358.32 137.153 359.2C137.889 360.064 138.257 361.184 138.257 362.56V370H135.065V363.112C135.065 362.408 134.881 361.84 134.513 361.408C134.161 360.976 133.617 360.76 132.881 360.76C132.209 360.76 131.673 360.992 131.273 361.456C130.873 361.92 130.673 362.504 130.673 363.208ZM140.468 355.984C140.468 355.456 140.636 355.024 140.972 354.688C141.324 354.336 141.756 354.16 142.268 354.16C142.78 354.16 143.204 354.336 143.54 354.688C143.876 355.024 144.044 355.456 144.044 355.984C144.044 356.208 144.012 356.416 143.948 356.608L142.82 361H141.692L140.564 356.608C140.5 356.288 140.468 356.08 140.468 355.984ZM150.495 354.664V358.192H152.871V361.024H150.495V365.968C150.495 366.464 150.607 366.816 150.831 367.024C151.055 367.232 151.407 367.336 151.887 367.336C152.319 367.336 152.647 367.304 152.871 367.24V369.88C152.407 370.072 151.807 370.168 151.071 370.168C149.919 370.168 149.007 369.848 148.335 369.208C147.663 368.552 147.327 367.656 147.327 366.52V361.024H145.191V358.192H145.791C146.383 358.192 146.831 358.024 147.135 357.688C147.455 357.336 147.615 356.88 147.615 356.32V354.664H150.495ZM164.634 370H161.442V352.624H164.634V370ZM170.38 362.752H175.66C175.628 362.096 175.388 361.544 174.94 361.096C174.508 360.648 173.868 360.424 173.02 360.424C172.252 360.424 171.628 360.664 171.148 361.144C170.668 361.624 170.412 362.16 170.38 362.752ZM175.972 365.824L178.636 366.616C178.316 367.704 177.684 368.6 176.74 369.304C175.812 370.008 174.652 370.36 173.26 370.36C171.564 370.36 170.124 369.792 168.94 368.656C167.756 367.504 167.164 365.968 167.164 364.048C167.164 362.224 167.74 360.736 168.892 359.584C170.044 358.416 171.404 357.832 172.972 357.832C174.796 357.832 176.22 358.376 177.244 359.464C178.284 360.552 178.804 362.048 178.804 363.952C178.804 364.08 178.796 364.224 178.78 364.384C178.78 364.544 178.78 364.672 178.78 364.768L178.756 364.936H170.308C170.34 365.704 170.644 366.344 171.22 366.856C171.796 367.368 172.484 367.624 173.284 367.624C174.644 367.624 175.54 367.024 175.972 365.824ZM185.253 354.664V358.192H187.629V361.024H185.253V365.968C185.253 366.464 185.365 366.816 185.589 367.024C185.813 367.232 186.165 367.336 186.645 367.336C187.077 367.336 187.405 367.304 187.629 367.24V369.88C187.165 370.072 186.565 370.168 185.829 370.168C184.677 370.168 183.765 369.848 183.093 369.208C182.421 368.552 182.085 367.656 182.085 366.52V361.024H179.949V358.192H180.549C181.141 358.192 181.589 358.024 181.893 357.688C182.213 357.336 182.373 356.88 182.373 356.32V354.664H185.253ZM200.136 354.664V358.192H202.512V361.024H200.136V365.968C200.136 366.464 200.248 366.816 200.472 367.024C200.696 367.232 201.048 367.336 201.528 367.336C201.96 367.336 202.288 367.304 202.512 367.24V369.88C202.048 370.072 201.448 370.168 200.712 370.168C199.56 370.168 198.648 369.848 197.976 369.208C197.304 368.552 196.968 367.656 196.968 366.52V361.024H194.832V358.192H195.432C196.024 358.192 196.472 358.024 196.776 357.688C197.096 357.336 197.256 356.88 197.256 356.32V354.664H200.136ZM207.83 363.064V370H204.638V352.624H207.83V359.176C208.55 358.312 209.614 357.88 211.022 357.88C212.462 357.88 213.55 358.32 214.286 359.2C215.038 360.064 215.414 361.184 215.414 362.56V370H212.222V363.112C212.222 362.408 212.038 361.84 211.67 361.408C211.318 360.976 210.774 360.76 210.038 360.76C209.382 360.76 208.854 360.976 208.454 361.408C208.07 361.84 207.862 362.392 207.83 363.064ZM220.981 362.752H226.261C226.229 362.096 225.989 361.544 225.541 361.096C225.109 360.648 224.469 360.424 223.621 360.424C222.853 360.424 222.229 360.664 221.749 361.144C221.269 361.624 221.013 362.16 220.981 362.752ZM226.573 365.824L229.237 366.616C228.917 367.704 228.285 368.6 227.341 369.304C226.413 370.008 225.253 370.36 223.861 370.36C222.165 370.36 220.725 369.792 219.541 368.656C218.357 367.504 217.765 365.968 217.765 364.048C217.765 362.224 218.341 360.736 219.493 359.584C220.645 358.416 222.005 357.832 223.573 357.832C225.397 357.832 226.821 358.376 227.845 359.464C228.885 360.552 229.405 362.048 229.405 363.952C229.405 364.08 229.397 364.224 229.381 364.384C229.381 364.544 229.381 364.672 229.381 364.768L229.357 364.936H220.909C220.941 365.704 221.245 366.344 221.821 366.856C222.397 367.368 223.085 367.624 223.885 367.624C225.245 367.624 226.141 367.024 226.573 365.824ZM241.785 354.664V358.192H244.161V361.024H241.785V365.968C241.785 366.464 241.897 366.816 242.121 367.024C242.345 367.232 242.697 367.336 243.177 367.336C243.609 367.336 243.937 367.304 244.161 367.24V369.88C243.697 370.072 243.097 370.168 242.361 370.168C241.209 370.168 240.297 369.848 239.625 369.208C238.953 368.552 238.617 367.656 238.617 366.52V361.024H236.481V358.192H237.081C237.673 358.192 238.121 358.024 238.425 357.688C238.745 357.336 238.905 356.88 238.905 356.32V354.664H241.785ZM250.064 370H246.872V358.192H250.064V370ZM246.488 354.328C246.488 353.784 246.68 353.32 247.064 352.936C247.448 352.536 247.912 352.336 248.456 352.336C249 352.336 249.464 352.528 249.848 352.912C250.232 353.296 250.424 353.768 250.424 354.328C250.424 354.856 250.232 355.312 249.848 355.696C249.464 356.08 249 356.272 248.456 356.272C247.912 356.272 247.448 356.08 247.064 355.696C246.68 355.312 246.488 354.856 246.488 354.328ZM256.673 370H253.481V358.192H256.529V359.632C256.833 359.088 257.313 358.656 257.969 358.336C258.625 358.016 259.297 357.856 259.985 357.856C261.697 357.856 262.865 358.512 263.489 359.824C264.337 358.512 265.585 357.856 267.233 357.856C268.433 357.856 269.441 358.232 270.257 358.984C271.089 359.736 271.505 360.856 271.505 362.344V370H268.409V362.992C268.409 362.32 268.233 361.784 267.881 361.384C267.545 360.968 267.025 360.76 266.321 360.76C265.665 360.76 265.137 360.984 264.737 361.432C264.337 361.88 264.137 362.432 264.137 363.088V370H260.969V362.992C260.969 362.32 260.793 361.784 260.441 361.384C260.089 360.968 259.569 360.76 258.881 360.76C258.209 360.76 257.673 360.984 257.273 361.432C256.873 361.864 256.673 362.416 256.673 363.088V370ZM277.067 362.752H282.347C282.315 362.096 282.075 361.544 281.627 361.096C281.195 360.648 280.555 360.424 279.707 360.424C278.939 360.424 278.315 360.664 277.835 361.144C277.355 361.624 277.099 362.16 277.067 362.752ZM282.659 365.824L285.323 366.616C285.003 367.704 284.371 368.6 283.427 369.304C282.499 370.008 281.339 370.36 279.947 370.36C278.251 370.36 276.811 369.792 275.627 368.656C274.443 367.504 273.851 365.968 273.851 364.048C273.851 362.224 274.427 360.736 275.579 359.584C276.731 358.416 278.091 357.832 279.659 357.832C281.483 357.832 282.907 358.376 283.931 359.464C284.971 360.552 285.491 362.048 285.491 363.952C285.491 364.08 285.483 364.224 285.467 364.384C285.467 364.544 285.467 364.672 285.467 364.768L285.443 364.936H276.995C277.027 365.704 277.331 366.344 277.907 366.856C278.483 367.368 279.171 367.624 279.971 367.624C281.331 367.624 282.227 367.024 282.659 365.824ZM295.205 358.144V361.36C294.885 361.296 294.565 361.264 294.245 361.264C293.333 361.264 292.597 361.528 292.037 362.056C291.477 362.568 291.197 363.416 291.197 364.6V370H288.005V358.192H291.101V359.944C291.677 358.712 292.797 358.096 294.461 358.096C294.637 358.096 294.885 358.112 295.205 358.144ZM159.689 388.144V391.36C159.369 391.296 159.049 391.264 158.729 391.264C157.817 391.264 157.081 391.528 156.521 392.056C155.961 392.568 155.681 393.416 155.681 394.6V400H152.489V388.192H155.585V389.944C156.161 388.712 157.281 388.096 158.945 388.096C159.121 388.096 159.369 388.112 159.689 388.144ZM169.639 400C169.575 399.68 169.543 399.256 169.543 398.728C169.239 399.256 168.783 399.656 168.175 399.928C167.583 400.184 166.951 400.312 166.279 400.312C164.887 400.312 163.791 399.872 162.991 398.992C162.191 398.096 161.791 396.984 161.791 395.656V388.192H164.983V395.008C164.983 395.712 165.167 396.288 165.535 396.736C165.903 397.168 166.439 397.384 167.143 397.384C167.831 397.384 168.375 397.176 168.775 396.76C169.175 396.328 169.375 395.76 169.375 395.056V388.192H172.567V397.864C172.567 398.616 172.607 399.328 172.687 400H169.639ZM179.166 393.208V400H175.974V388.192H179.07V389.656C179.406 389.08 179.886 388.64 180.51 388.336C181.134 388.032 181.79 387.88 182.478 387.88C183.87 387.88 184.926 388.32 185.646 389.2C186.382 390.064 186.75 391.184 186.75 392.56V400H183.558V393.112C183.558 392.408 183.374 391.84 183.006 391.408C182.654 390.976 182.11 390.76 181.374 390.76C180.702 390.76 180.166 390.992 179.766 391.456C179.366 391.92 179.166 392.504 179.166 393.208ZM199.087 396.568C199.679 397.16 200.391 397.456 201.223 397.456C202.055 397.456 202.759 397.16 203.335 396.568C203.927 395.976 204.223 395.152 204.223 394.096C204.223 393.04 203.927 392.216 203.335 391.624C202.759 391.032 202.055 390.736 201.223 390.736C200.391 390.736 199.679 391.032 199.087 391.624C198.511 392.216 198.223 393.04 198.223 394.096C198.223 395.152 198.511 395.976 199.087 396.568ZM196.783 389.608C197.967 388.424 199.447 387.832 201.223 387.832C202.999 387.832 204.471 388.424 205.639 389.608C206.823 390.792 207.415 392.288 207.415 394.096C207.415 395.904 206.823 397.4 205.639 398.584C204.471 399.768 202.999 400.36 201.223 400.36C199.447 400.36 197.967 399.768 196.783 398.584C195.615 397.4 195.031 395.904 195.031 394.096C195.031 392.288 195.615 390.792 196.783 389.608ZM217.616 400C217.552 399.68 217.52 399.256 217.52 398.728C217.216 399.256 216.76 399.656 216.152 399.928C215.56 400.184 214.928 400.312 214.256 400.312C212.864 400.312 211.768 399.872 210.968 398.992C210.168 398.096 209.768 396.984 209.768 395.656V388.192H212.96V395.008C212.96 395.712 213.144 396.288 213.512 396.736C213.88 397.168 214.416 397.384 215.12 397.384C215.808 397.384 216.352 397.176 216.752 396.76C217.152 396.328 217.352 395.76 217.352 395.056V388.192H220.544V397.864C220.544 398.616 220.584 399.328 220.664 400H217.616ZM227.886 384.664V388.192H230.262V391.024H227.886V395.968C227.886 396.464 227.998 396.816 228.222 397.024C228.446 397.232 228.798 397.336 229.278 397.336C229.71 397.336 230.038 397.304 230.262 397.24V399.88C229.798 400.072 229.198 400.168 228.462 400.168C227.31 400.168 226.398 399.848 225.726 399.208C225.054 398.552 224.718 397.656 224.718 396.52V391.024H222.582V388.192H223.182C223.774 388.192 224.222 388.024 224.526 387.688C224.846 387.336 225.006 386.88 225.006 386.32V384.664H227.886ZM237.127 382.984L236.359 394.816H234.031L233.263 382.984H237.127ZM233.863 399.64C233.495 399.272 233.311 398.824 233.311 398.296C233.311 397.768 233.495 397.32 233.863 396.952C234.231 396.568 234.671 396.376 235.183 396.376C235.711 396.376 236.159 396.568 236.527 396.952C236.911 397.32 237.103 397.768 237.103 398.296C237.103 398.824 236.911 399.272 236.527 399.64C236.159 400.008 235.711 400.192 235.183 400.192C234.671 400.192 234.231 400.008 233.863 399.64ZM101.202 446.128H95.8265V460H92.4905V446.128H87.1145V442.984H101.202V446.128ZM103.348 452.752H108.628C108.596 452.096 108.356 451.544 107.908 451.096C107.476 450.648 106.836 450.424 105.988 450.424C105.22 450.424 104.596 450.664 104.116 451.144C103.636 451.624 103.38 452.16 103.348 452.752ZM108.94 455.824L111.604 456.616C111.284 457.704 110.652 458.6 109.708 459.304C108.78 460.008 107.62 460.36 106.228 460.36C104.532 460.36 103.092 459.792 101.908 458.656C100.724 457.504 100.132 455.968 100.132 454.048C100.132 452.224 100.708 450.736 101.86 449.584C103.012 448.416 104.372 447.832 105.94 447.832C107.764 447.832 109.188 448.376 110.212 449.464C111.252 450.552 111.772 452.048 111.772 453.952C111.772 454.08 111.764 454.224 111.748 454.384C111.748 454.544 111.748 454.672 111.748 454.768L111.724 454.936H103.276C103.308 455.704 103.612 456.344 104.188 456.856C104.764 457.368 105.452 457.624 106.252 457.624C107.612 457.624 108.508 457.024 108.94 455.824ZM113.278 456.712L116.014 456.112C116.046 456.624 116.246 457.056 116.614 457.408C116.998 457.744 117.518 457.912 118.174 457.912C118.67 457.912 119.054 457.8 119.326 457.576C119.598 457.352 119.734 457.072 119.734 456.736C119.734 456.144 119.31 455.76 118.462 455.584L116.902 455.224C115.798 454.984 114.966 454.552 114.406 453.928C113.862 453.304 113.59 452.56 113.59 451.696C113.59 450.624 114.006 449.712 114.838 448.96C115.686 448.208 116.742 447.832 118.006 447.832C118.806 447.832 119.51 447.952 120.118 448.192C120.726 448.416 121.198 448.712 121.534 449.08C121.87 449.432 122.126 449.792 122.302 450.16C122.478 450.528 122.59 450.888 122.638 451.24L119.974 451.84C119.91 451.424 119.718 451.056 119.398 450.736C119.094 450.416 118.638 450.256 118.03 450.256C117.614 450.256 117.254 450.368 116.95 450.592C116.662 450.816 116.518 451.096 116.518 451.432C116.518 452.008 116.878 452.36 117.598 452.488L119.278 452.848C120.414 453.088 121.278 453.528 121.87 454.168C122.478 454.808 122.782 455.576 122.782 456.472C122.782 457.528 122.382 458.44 121.582 459.208C120.782 459.976 119.654 460.36 118.198 460.36C117.366 460.36 116.622 460.24 115.966 460C115.31 459.744 114.798 459.424 114.43 459.04C114.078 458.64 113.806 458.248 113.614 457.864C113.438 457.464 113.326 457.08 113.278 456.712ZM129.285 444.664V448.192H131.661V451.024H129.285V455.968C129.285 456.464 129.397 456.816 129.621 457.024C129.845 457.232 130.197 457.336 130.677 457.336C131.109 457.336 131.437 457.304 131.661 457.24V459.88C131.197 460.072 130.597 460.168 129.861 460.168C128.709 460.168 127.797 459.848 127.125 459.208C126.453 458.552 126.117 457.656 126.117 456.52V451.024H123.981V448.192H124.581C125.173 448.192 125.621 448.024 125.925 447.688C126.245 447.336 126.405 446.88 126.405 446.32V444.664H129.285ZM144.311 464.656H140.927L143.711 458.512L138.695 448.192H142.271L145.415 455.104L148.319 448.192H151.727L144.311 464.656ZM156.267 456.568C156.859 457.16 157.571 457.456 158.403 457.456C159.235 457.456 159.939 457.16 160.515 456.568C161.107 455.976 161.403 455.152 161.403 454.096C161.403 453.04 161.107 452.216 160.515 451.624C159.939 451.032 159.235 450.736 158.403 450.736C157.571 450.736 156.859 451.032 156.267 451.624C155.691 452.216 155.403 453.04 155.403 454.096C155.403 455.152 155.691 455.976 156.267 456.568ZM153.963 449.608C155.147 448.424 156.627 447.832 158.403 447.832C160.179 447.832 161.651 448.424 162.819 449.608C164.003 450.792 164.595 452.288 164.595 454.096C164.595 455.904 164.003 457.4 162.819 458.584C161.651 459.768 160.179 460.36 158.403 460.36C156.627 460.36 155.147 459.768 153.963 458.584C152.795 457.4 152.211 455.904 152.211 454.096C152.211 452.288 152.795 450.792 153.963 449.608ZM174.795 460C174.731 459.68 174.699 459.256 174.699 458.728C174.395 459.256 173.939 459.656 173.331 459.928C172.739 460.184 172.107 460.312 171.435 460.312C170.043 460.312 168.947 459.872 168.147 458.992C167.347 458.096 166.947 456.984 166.947 455.656V448.192H170.139V455.008C170.139 455.712 170.323 456.288 170.691 456.736C171.059 457.168 171.595 457.384 172.299 457.384C172.987 457.384 173.531 457.176 173.931 456.76C174.331 456.328 174.531 455.76 174.531 455.056V448.192H177.723V457.864C177.723 458.616 177.763 459.328 177.843 460H174.795ZM188.33 448.144V451.36C188.01 451.296 187.69 451.264 187.37 451.264C186.458 451.264 185.722 451.528 185.162 452.056C184.602 452.568 184.322 453.416 184.322 454.6V460H181.13V448.192H184.226V449.944C184.802 448.712 185.922 448.096 187.586 448.096C187.762 448.096 188.01 448.112 188.33 448.144ZM207.882 448.192L203.154 453.16L207.978 460H204.066L200.946 455.488L199.626 456.88V460H196.434V442.624H199.626V452.584L203.706 448.192H207.882ZM213.033 453.208V460H209.841V448.192H212.937V449.656C213.273 449.08 213.753 448.64 214.377 448.336C215.001 448.032 215.657 447.88 216.345 447.88C217.737 447.88 218.793 448.32 219.513 449.2C220.249 450.064 220.617 451.184 220.617 452.56V460H217.425V453.112C217.425 452.408 217.241 451.84 216.873 451.408C216.521 450.976 215.977 450.76 215.241 450.76C214.569 450.76 214.033 450.992 213.633 451.456C213.233 451.92 213.033 452.504 213.033 453.208ZM227.024 456.568C227.616 457.16 228.328 457.456 229.16 457.456C229.992 457.456 230.696 457.16 231.272 456.568C231.864 455.976 232.16 455.152 232.16 454.096C232.16 453.04 231.864 452.216 231.272 451.624C230.696 451.032 229.992 450.736 229.16 450.736C228.328 450.736 227.616 451.032 227.024 451.624C226.448 452.216 226.16 453.04 226.16 454.096C226.16 455.152 226.448 455.976 227.024 456.568ZM224.72 449.608C225.904 448.424 227.384 447.832 229.16 447.832C230.936 447.832 232.408 448.424 233.576 449.608C234.76 450.792 235.352 452.288 235.352 454.096C235.352 455.904 234.76 457.4 233.576 458.584C232.408 459.768 230.936 460.36 229.16 460.36C227.384 460.36 225.904 459.768 224.72 458.584C223.552 457.4 222.968 455.904 222.968 454.096C222.968 452.288 223.552 450.792 224.72 449.608ZM244.263 448.192H247.623L250.167 455.8L252.351 448.192H255.519L251.823 460H248.631L245.871 451.936L243.159 460H239.919L236.151 448.192H239.511L241.695 455.776L244.263 448.192ZM260.705 460H257.513V442.624H260.705V460ZM266.45 452.752H271.73C271.698 452.096 271.458 451.544 271.01 451.096C270.578 450.648 269.938 450.424 269.09 450.424C268.322 450.424 267.698 450.664 267.218 451.144C266.738 451.624 266.482 452.16 266.45 452.752ZM272.042 455.824L274.706 456.616C274.386 457.704 273.754 458.6 272.81 459.304C271.882 460.008 270.722 460.36 269.33 460.36C267.634 460.36 266.194 459.792 265.01 458.656C263.826 457.504 263.234 455.968 263.234 454.048C263.234 452.224 263.81 450.736 264.962 449.584C266.114 448.416 267.474 447.832 269.042 447.832C270.866 447.832 272.29 448.376 273.314 449.464C274.354 450.552 274.874 452.048 274.874 453.952C274.874 454.08 274.866 454.224 274.85 454.384C274.85 454.544 274.85 454.672 274.85 454.768L274.826 454.936H266.378C266.41 455.704 266.714 456.344 267.29 456.856C267.866 457.368 268.554 457.624 269.354 457.624C270.714 457.624 271.61 457.024 272.042 455.824ZM276.548 460.648L279.428 459.88C279.54 460.536 279.844 461.072 280.34 461.488C280.836 461.904 281.452 462.112 282.188 462.112C284.284 462.112 285.332 461.016 285.332 458.824V457.96C285.06 458.392 284.644 458.752 284.084 459.04C283.524 459.328 282.844 459.472 282.044 459.472C280.476 459.472 279.164 458.928 278.108 457.84C277.068 456.752 276.548 455.384 276.548 453.736C276.548 452.136 277.068 450.776 278.108 449.656C279.148 448.536 280.46 447.976 282.044 447.976C282.908 447.976 283.628 448.136 284.204 448.456C284.78 448.76 285.18 449.136 285.404 449.584V448.192H288.476V458.728C288.476 460.504 287.964 461.976 286.94 463.144C285.916 464.328 284.364 464.92 282.284 464.92C280.732 464.92 279.428 464.504 278.372 463.672C277.332 462.84 276.724 461.832 276.548 460.648ZM282.596 456.736C283.412 456.736 284.076 456.464 284.588 455.92C285.116 455.376 285.38 454.648 285.38 453.736C285.38 452.84 285.108 452.12 284.564 451.576C284.036 451.032 283.38 450.76 282.596 450.76C281.78 450.76 281.1 451.032 280.556 451.576C280.028 452.12 279.764 452.84 279.764 453.736C279.764 454.648 280.028 455.376 280.556 455.92C281.084 456.464 281.764 456.736 282.596 456.736ZM294.036 452.752H299.316C299.284 452.096 299.044 451.544 298.596 451.096C298.164 450.648 297.524 450.424 296.676 450.424C295.908 450.424 295.284 450.664 294.804 451.144C294.324 451.624 294.068 452.16 294.036 452.752ZM299.628 455.824L302.292 456.616C301.972 457.704 301.34 458.6 300.396 459.304C299.468 460.008 298.308 460.36 296.916 460.36C295.22 460.36 293.78 459.792 292.596 458.656C291.412 457.504 290.82 455.968 290.82 454.048C290.82 452.224 291.396 450.736 292.548 449.584C293.7 448.416 295.06 447.832 296.628 447.832C298.452 447.832 299.876 448.376 300.9 449.464C301.94 450.552 302.46 452.048 302.46 453.952C302.46 454.08 302.452 454.224 302.436 454.384C302.436 454.544 302.436 454.672 302.436 454.768L302.412 454.936H293.964C293.996 455.704 294.3 456.344 294.876 456.856C295.452 457.368 296.14 457.624 296.94 457.624C298.3 457.624 299.196 457.024 299.628 455.824Z" fill="#463881"/>
</g>
<g filter="url(#filter4_f_380_2119)">
<path d="M169.296 258L165.682 250.902H163.81V258H160.196V239.566H167.398C169.166 239.566 170.587 240.103 171.662 241.178C172.737 242.253 173.274 243.605 173.274 245.234C173.274 246.517 172.919 247.626 172.208 248.562C171.515 249.481 170.561 250.113 169.348 250.46L173.3 258H169.296ZM163.81 247.808H166.722C167.623 247.808 168.325 247.574 168.828 247.106C169.348 246.638 169.608 246.023 169.608 245.26C169.608 244.48 169.348 243.856 168.828 243.388C168.325 242.92 167.623 242.686 166.722 242.686H163.81V247.808ZM184.279 258C184.209 257.653 184.175 257.194 184.175 256.622C183.845 257.194 183.351 257.627 182.693 257.922C182.051 258.199 181.367 258.338 180.639 258.338C179.131 258.338 177.943 257.861 177.077 256.908C176.21 255.937 175.777 254.733 175.777 253.294V245.208H179.235V252.592C179.235 253.355 179.434 253.979 179.833 254.464C180.231 254.932 180.812 255.166 181.575 255.166C182.32 255.166 182.909 254.941 183.343 254.49C183.776 254.022 183.993 253.407 183.993 252.644V245.208H187.451V255.686C187.451 256.501 187.494 257.272 187.581 258H184.279ZM194.599 258H191.141V239.176H194.599V258ZM200.823 250.148H206.543C206.508 249.437 206.248 248.839 205.763 248.354C205.295 247.869 204.602 247.626 203.683 247.626C202.851 247.626 202.175 247.886 201.655 248.406C201.135 248.926 200.858 249.507 200.823 250.148ZM206.881 253.476L209.767 254.334C209.42 255.513 208.736 256.483 207.713 257.246C206.708 258.009 205.451 258.39 203.943 258.39C202.106 258.39 200.546 257.775 199.263 256.544C197.98 255.296 197.339 253.632 197.339 251.552C197.339 249.576 197.963 247.964 199.211 246.716C200.459 245.451 201.932 244.818 203.631 244.818C205.607 244.818 207.15 245.407 208.259 246.586C209.386 247.765 209.949 249.385 209.949 251.448C209.949 251.587 209.94 251.743 209.923 251.916C209.923 252.089 209.923 252.228 209.923 252.332L209.897 252.514H200.745C200.78 253.346 201.109 254.039 201.733 254.594C202.357 255.149 203.102 255.426 203.969 255.426C205.442 255.426 206.413 254.776 206.881 253.476ZM211.58 254.438L214.544 253.788C214.579 254.343 214.796 254.811 215.194 255.192C215.61 255.556 216.174 255.738 216.884 255.738C217.422 255.738 217.838 255.617 218.132 255.374C218.427 255.131 218.574 254.828 218.574 254.464C218.574 253.823 218.115 253.407 217.196 253.216L215.506 252.826C214.31 252.566 213.409 252.098 212.802 251.422C212.213 250.746 211.918 249.94 211.918 249.004C211.918 247.843 212.369 246.855 213.27 246.04C214.189 245.225 215.333 244.818 216.702 244.818C217.569 244.818 218.332 244.948 218.99 245.208C219.649 245.451 220.16 245.771 220.524 246.17C220.888 246.551 221.166 246.941 221.356 247.34C221.547 247.739 221.668 248.129 221.72 248.51L218.834 249.16C218.765 248.709 218.557 248.311 218.21 247.964C217.881 247.617 217.387 247.444 216.728 247.444C216.278 247.444 215.888 247.565 215.558 247.808C215.246 248.051 215.09 248.354 215.09 248.718C215.09 249.342 215.48 249.723 216.26 249.862L218.08 250.252C219.311 250.512 220.247 250.989 220.888 251.682C221.547 252.375 221.876 253.207 221.876 254.178C221.876 255.322 221.443 256.31 220.576 257.142C219.71 257.974 218.488 258.39 216.91 258.39C216.009 258.39 215.203 258.26 214.492 258C213.782 257.723 213.227 257.376 212.828 256.96C212.447 256.527 212.152 256.102 211.944 255.686C211.754 255.253 211.632 254.837 211.58 254.438ZM225.229 257.506C224.778 257.055 224.553 256.509 224.553 255.868C224.553 255.227 224.778 254.681 225.229 254.23C225.679 253.762 226.225 253.528 226.867 253.528C227.525 253.528 228.08 253.762 228.531 254.23C228.999 254.681 229.233 255.227 229.233 255.868C229.233 256.509 228.999 257.055 228.531 257.506C228.08 257.957 227.525 258.182 226.867 258.182C226.225 258.182 225.679 257.957 225.229 257.506ZM225.203 249.004C224.752 248.553 224.527 248.007 224.527 247.366C224.527 246.725 224.752 246.179 225.203 245.728C225.653 245.26 226.199 245.026 226.841 245.026C227.499 245.026 228.054 245.26 228.505 245.728C228.973 246.179 229.207 246.725 229.207 247.366C229.207 248.007 228.973 248.553 228.505 249.004C228.054 249.455 227.499 249.68 226.841 249.68C226.199 249.68 225.653 249.455 225.203 249.004Z" fill="black"/>
</g>
<g filter="url(#filter5_f_380_2119)">
<rect x="121" y="540" width="147" height="61" rx="30.5" fill="#7F6FBB"/>
</g>
<g filter="url(#filter6_f_380_2119)">
<path d="M176.604 565.96L173.38 566.948C173.258 566.289 172.929 565.691 172.392 565.154C171.854 564.617 171.066 564.348 170.026 564.348C169.176 564.348 168.483 564.582 167.946 565.05C167.408 565.501 167.14 566.047 167.14 566.688C167.14 567.815 167.807 568.508 169.142 568.768L171.716 569.262C173.345 569.574 174.61 570.224 175.512 571.212C176.413 572.2 176.864 573.361 176.864 574.696C176.864 576.221 176.257 577.556 175.044 578.7C173.848 579.827 172.236 580.39 170.208 580.39C169.046 580.39 167.998 580.217 167.062 579.87C166.126 579.523 165.372 579.064 164.8 578.492C164.228 577.903 163.777 577.287 163.448 576.646C163.136 575.987 162.945 575.311 162.876 574.618L166.204 573.734C166.29 574.722 166.672 575.545 167.348 576.204C168.041 576.863 169.003 577.192 170.234 577.192C171.17 577.192 171.898 576.984 172.418 576.568C172.955 576.152 173.224 575.606 173.224 574.93C173.224 574.393 173.024 573.933 172.626 573.552C172.244 573.153 171.698 572.885 170.988 572.746L168.414 572.226C166.923 571.914 165.744 571.299 164.878 570.38C164.011 569.461 163.578 568.317 163.578 566.948C163.578 565.319 164.202 563.949 165.45 562.84C166.715 561.731 168.232 561.176 170 561.176C171.057 561.176 172.002 561.323 172.834 561.618C173.666 561.913 174.333 562.311 174.836 562.814C175.338 563.299 175.728 563.802 176.006 564.322C176.283 564.842 176.482 565.388 176.604 565.96ZM184.024 563.386V567.208H186.598V570.276H184.024V575.632C184.024 576.169 184.145 576.551 184.388 576.776C184.631 577.001 185.012 577.114 185.532 577.114C186 577.114 186.355 577.079 186.598 577.01V579.87C186.095 580.078 185.445 580.182 184.648 580.182C183.4 580.182 182.412 579.835 181.684 579.142C180.956 578.431 180.592 577.461 180.592 576.23V570.276H178.278V567.208H178.928C179.569 567.208 180.055 567.026 180.384 566.662C180.731 566.281 180.904 565.787 180.904 565.18V563.386H184.024ZM188.832 576.516C188.832 575.424 189.187 574.549 189.898 573.89C190.608 573.231 191.527 572.815 192.654 572.642L195.8 572.174C196.441 572.087 196.762 571.784 196.762 571.264C196.762 570.779 196.571 570.38 196.19 570.068C195.826 569.756 195.297 569.6 194.604 569.6C193.876 569.6 193.295 569.799 192.862 570.198C192.446 570.597 192.212 571.091 192.16 571.68L189.092 571.03C189.213 569.921 189.759 568.941 190.73 568.092C191.7 567.243 192.983 566.818 194.578 566.818C196.484 566.818 197.888 567.277 198.79 568.196C199.691 569.097 200.142 570.259 200.142 571.68V577.972C200.142 578.735 200.194 579.411 200.298 580H197.126C197.039 579.619 196.996 579.107 196.996 578.466C196.181 579.731 194.924 580.364 193.226 580.364C191.908 580.364 190.842 579.983 190.028 579.22C189.23 578.457 188.832 577.556 188.832 576.516ZM193.954 577.79C194.768 577.79 195.436 577.565 195.956 577.114C196.493 576.646 196.762 575.883 196.762 574.826V574.254L193.876 574.696C192.818 574.852 192.29 575.389 192.29 576.308C192.29 576.724 192.437 577.079 192.732 577.374C193.026 577.651 193.434 577.79 193.954 577.79ZM211.427 567.156V570.64C211.081 570.571 210.734 570.536 210.387 570.536C209.399 570.536 208.602 570.822 207.995 571.394C207.389 571.949 207.085 572.867 207.085 574.15V580H203.627V567.208H206.981V569.106C207.605 567.771 208.819 567.104 210.621 567.104C210.812 567.104 211.081 567.121 211.427 567.156ZM218.631 563.386V567.208H221.205V570.276H218.631V575.632C218.631 576.169 218.753 576.551 218.995 576.776C219.238 577.001 219.619 577.114 220.139 577.114C220.607 577.114 220.963 577.079 221.205 577.01V579.87C220.703 580.078 220.053 580.182 219.255 580.182C218.007 580.182 217.019 579.835 216.291 579.142C215.563 578.431 215.199 577.461 215.199 576.23V570.276H212.885V567.208H213.535C214.177 567.208 214.662 567.026 214.991 566.662C215.338 566.281 215.511 565.787 215.511 565.18V563.386H218.631ZM228.643 561.566L227.811 574.384H225.289L224.457 561.566H228.643ZM225.107 579.61C224.708 579.211 224.509 578.726 224.509 578.154C224.509 577.582 224.708 577.097 225.107 576.698C225.505 576.282 225.982 576.074 226.537 576.074C227.109 576.074 227.594 576.282 227.993 576.698C228.409 577.097 228.617 577.582 228.617 578.154C228.617 578.726 228.409 579.211 227.993 579.61C227.594 580.009 227.109 580.208 226.537 580.208C225.982 580.208 225.505 580.009 225.107 579.61Z" fill="white"/>
</g>
<path d="M286 705C286 695.059 294.059 687 304 687H347C356.941 687 365 695.059 365 705V710C365 719.941 356.941 728 347 728H304C294.059 728 286 719.941 286 710V705Z" fill="#A7AADE"/>
<g filter="url(#filter7_d_380_2119)">
<rect width="390" height="62" fill="white"/>
</g>
<path d="M7.064 23.424C7.112 23.376 7.368 23.32 7.832 23.256C8.28 23.192 8.872 23.136 9.608 23.088C10.36 23.04 11.216 23 12.176 22.968C13.152 22.936 14.176 22.912 15.248 22.896C15.376 22.64 15.584 22.416 15.872 22.224C16.176 22.016 16.472 21.872 16.76 21.792C17.064 21.696 17.312 21.672 17.504 21.72C17.696 21.768 17.744 21.912 17.648 22.152C17.616 22.248 17.576 22.36 17.528 22.488C17.496 22.6 17.464 22.736 17.432 22.896C18.296 22.912 19.144 22.936 19.976 22.968C20.824 23 21.632 23.048 22.4 23.112C23.168 23.176 23.88 23.256 24.536 23.352C25.208 23.432 25.792 23.536 26.288 23.664C26.56 23.728 26.744 23.816 26.84 23.928C26.952 24.04 27.008 24.152 27.008 24.264C27.008 24.408 26.92 24.536 26.744 24.648C26.568 24.76 26.384 24.816 26.192 24.816C25.28 24.72 24.344 24.656 23.384 24.624C22.424 24.592 21.488 24.576 20.576 24.576C19.408 24.576 18.272 24.6 17.168 24.648C17.04 25.688 16.936 26.928 16.856 28.368C16.776 29.808 16.704 31.336 16.64 32.952C16.592 34.552 16.552 36.176 16.52 37.824C16.488 39.456 16.456 40.984 16.424 42.408C16.408 43.336 16.392 44.2 16.376 45C16.376 45.8 16.368 46.504 16.352 47.112C16.336 47.72 16.312 48.208 16.28 48.576C16.264 48.96 16.24 49.2 16.208 49.296C16.112 49.616 15.872 49.848 15.488 49.992C15.104 50.152 14.688 50.232 14.24 50.232C14 50.232 13.76 50.2 13.52 50.136C13.296 50.088 13.096 50.016 12.92 49.92C12.76 49.824 12.632 49.704 12.536 49.56C12.456 49.432 12.432 49.28 12.464 49.104C12.624 48.384 12.776 47.512 12.92 46.488C13.064 45.464 13.192 44.352 13.304 43.152C13.416 41.936 13.52 40.672 13.616 39.36C13.712 38.032 13.8 36.704 13.88 35.376C13.944 34.336 14.008 33.312 14.072 32.304C14.152 31.296 14.224 30.336 14.288 29.424C14.368 28.512 14.448 27.664 14.528 26.88C14.624 26.08 14.72 25.376 14.816 24.768C14.16 24.8 13.544 24.84 12.968 24.888C12.392 24.936 11.848 24.976 11.336 25.008C10.472 25.072 9.736 25.12 9.128 25.152C8.52 25.168 8.104 25.152 7.88 25.104C7.624 25.04 7.408 25 7.232 24.984C7.04 24.968 6.896 24.92 6.8 24.84C6.64 24.792 6.488 24.712 6.344 24.6C6.2 24.488 6.12 24.368 6.104 24.24C6.072 24.096 6.128 23.952 6.272 23.808C6.4 23.664 6.664 23.536 7.064 23.424ZM19.5369 37.512C19.5369 37.448 19.5449 37.408 19.5609 37.392C19.5609 37.152 19.7129 36.944 20.0169 36.768C20.3209 36.576 20.6569 36.48 21.0249 36.48C21.2969 36.48 21.5449 36.552 21.7689 36.696C22.0089 36.84 22.1609 37.072 22.2249 37.392C22.2729 37.616 22.2969 37.864 22.2969 38.136C22.3129 38.392 22.3209 38.672 22.3209 38.976C22.3209 39.504 22.3049 40.072 22.2729 40.68C22.2409 41.288 22.2009 41.896 22.1529 42.504C22.1209 43.112 22.0889 43.704 22.0569 44.28C22.0409 44.84 22.0329 45.368 22.0329 45.864C22.0329 46.632 22.0729 47.264 22.1529 47.76C22.2329 48.24 22.4009 48.464 22.6569 48.432C22.8009 48.4 22.9689 48.224 23.1609 47.904C23.3529 47.568 23.5529 47.144 23.7609 46.632C23.9849 46.104 24.2009 45.512 24.4089 44.856C24.6329 44.2 24.8489 43.552 25.0569 42.912C25.2649 42.256 25.4569 41.632 25.6329 41.04C25.8249 40.432 25.9849 39.912 26.1129 39.48L26.4249 38.448C26.4889 38.272 26.6009 38.16 26.7609 38.112C26.9369 38.048 27.1049 38.032 27.2649 38.064C27.4249 38.08 27.5689 38.144 27.6969 38.256C27.8249 38.352 27.8889 38.48 27.8889 38.64C27.8889 38.992 27.8249 39.512 27.6969 40.2C27.5849 40.872 27.4169 41.616 27.1929 42.432C26.9689 43.232 26.6889 44.056 26.3529 44.904C26.0169 45.736 25.6249 46.496 25.1769 47.184C24.7449 47.856 24.2649 48.408 23.7369 48.84C23.2089 49.288 22.6329 49.512 22.0089 49.512C21.4489 49.448 20.9769 49.224 20.5929 48.84C20.2249 48.456 19.9209 47.976 19.6809 47.4C19.4569 46.808 19.2969 46.152 19.2009 45.432C19.1049 44.712 19.0569 43.976 19.0569 43.224C19.0569 42.584 19.0809 41.952 19.1289 41.328C19.1609 40.704 19.2089 40.136 19.2729 39.624C19.3209 39.096 19.3689 38.648 19.4169 38.28C19.4809 37.912 19.5209 37.656 19.5369 37.512ZM19.4649 34.248C19.4649 33.784 19.6089 33.392 19.8969 33.072C20.2009 32.752 20.5609 32.592 20.9769 32.592C21.3769 32.592 21.7209 32.752 22.0089 33.072C22.3129 33.392 22.4649 33.784 22.4649 34.248C22.4649 34.712 22.3129 35.112 22.0089 35.448C21.7209 35.768 21.3769 35.928 20.9769 35.928C20.5609 35.928 20.2009 35.768 19.8969 35.448C19.6089 35.112 19.4649 34.712 19.4649 34.248ZM33.1978 37.944C33.1978 37.88 33.2058 37.84 33.2218 37.824C33.2378 37.744 33.2938 37.656 33.3898 37.56C33.5018 37.448 33.6298 37.352 33.7738 37.272C33.9338 37.176 34.1098 37.104 34.3018 37.056C34.4938 36.992 34.6858 36.96 34.8778 36.96C35.1338 36.96 35.3578 37.024 35.5498 37.152C35.7578 37.264 35.8858 37.472 35.9338 37.776C35.9978 38.096 36.0298 38.528 36.0298 39.072C36.0298 39.648 35.9978 40.28 35.9338 40.968C35.8858 41.64 35.8218 42.328 35.7418 43.032C35.6778 43.704 35.6138 44.352 35.5498 44.976C35.5018 45.584 35.4778 46.136 35.4778 46.632C35.4778 47.144 35.5178 47.568 35.5978 47.904C35.6778 48.224 35.8138 48.368 36.0058 48.336C36.1498 48.32 36.3178 48.152 36.5098 47.832C36.7178 47.496 36.9338 47.08 37.1578 46.584C37.3818 46.072 37.6058 45.504 37.8298 44.88C38.0698 44.256 38.2938 43.632 38.5018 43.008C38.7258 42.384 38.9258 41.792 39.1018 41.232C39.2938 40.672 39.4538 40.208 39.5818 39.84L39.8218 39.048C39.8698 38.936 39.9818 38.864 40.1578 38.832C40.3338 38.8 40.5178 38.8 40.7098 38.832C40.9018 38.864 41.0618 38.92 41.1898 39C41.3178 39.08 41.3578 39.168 41.3098 39.264V39.216L41.1178 39.888C41.0218 40.32 40.8858 40.864 40.7098 41.52C40.5338 42.16 40.3178 42.848 40.0618 43.584C39.8058 44.304 39.5178 45.032 39.1978 45.768C38.8778 46.504 38.5178 47.168 38.1178 47.76C37.7178 48.336 37.2778 48.8 36.7978 49.152C36.3338 49.52 35.8378 49.696 35.3098 49.68C34.9578 49.632 34.6458 49.496 34.3738 49.272C34.1178 49.048 33.8938 48.768 33.7018 48.432C33.5098 48.096 33.3418 47.712 33.1978 47.28C33.0698 46.832 32.9738 46.36 32.9098 45.864C32.6858 46.28 32.3818 46.664 31.9978 47.016C31.6138 47.352 31.1338 47.56 30.5578 47.64C29.4538 47.704 28.5818 47.536 27.9418 47.136C27.3178 46.736 26.8458 46.24 26.5258 45.648C26.2218 45.056 26.0297 44.432 25.9497 43.776C25.8697 43.104 25.8217 42.528 25.8057 42.048C25.8057 41.728 25.8297 41.32 25.8777 40.824C25.9097 40.312 25.9977 39.768 26.1418 39.192C26.2858 38.616 26.4778 38.04 26.7178 37.464C26.9738 36.872 27.3018 36.336 27.7018 35.856C28.1178 35.376 28.6218 34.984 29.2138 34.68C29.8058 34.36 30.5018 34.184 31.3018 34.152C31.9418 34.136 32.4618 34.192 32.8618 34.32C33.2778 34.448 33.6058 34.608 33.8458 34.8C34.0858 34.992 34.2618 35.192 34.3738 35.4C34.4858 35.608 34.5658 35.792 34.6138 35.952L34.6858 36.192V36.168C34.8138 36.44 34.7898 36.648 34.6138 36.792C34.4538 36.936 34.2378 37.008 33.9658 37.008C33.8058 37.008 33.6378 36.976 33.4618 36.912C33.2858 36.832 33.1338 36.72 33.0058 36.576C32.9258 36.512 32.8858 36.464 32.8858 36.432C32.8858 36.4 32.8698 36.36 32.8378 36.312C32.7578 36.136 32.6218 35.936 32.4297 35.712C32.2538 35.488 31.9578 35.384 31.5418 35.4C31.3018 35.416 31.0378 35.576 30.7498 35.88C30.4778 36.184 30.2138 36.616 29.9578 37.176C29.7178 37.736 29.5018 38.416 29.3098 39.216C29.1178 40 28.9898 40.896 28.9258 41.904C28.9258 42 28.9178 42.128 28.9018 42.288C28.9018 42.448 28.9018 42.568 28.9018 42.648C28.9018 43.592 28.9738 44.312 29.1178 44.808C29.2618 45.288 29.4298 45.64 29.6217 45.864C29.8138 46.072 30.0058 46.184 30.1978 46.2C30.3898 46.216 30.5338 46.224 30.6298 46.224C30.8218 46.224 31.0218 46.128 31.2298 45.936C31.4378 45.744 31.6298 45.512 31.8058 45.24C31.9978 44.952 32.1738 44.648 32.3338 44.328C32.4938 43.992 32.6378 43.688 32.7658 43.416C32.7658 42.808 32.7818 42.216 32.8138 41.64C32.8458 41.048 32.8858 40.504 32.9338 40.008C32.9818 39.512 33.0298 39.088 33.0778 38.736C33.1258 38.368 33.1658 38.104 33.1978 37.944ZM46.5461 32.592C47.0101 32.592 47.3941 32.696 47.6981 32.904C48.0021 33.096 48.2421 33.368 48.4181 33.72C48.6101 34.072 48.7461 34.496 48.8261 34.992C48.9061 35.472 48.9461 36.008 48.9461 36.6C48.9461 37.576 48.8661 38.64 48.7061 39.792C48.5621 40.928 48.4101 42.048 48.2501 43.152C48.0901 44.08 47.9541 44.96 47.8421 45.792C47.7461 46.608 47.6981 47.312 47.6981 47.904C47.6981 48.368 47.7301 48.728 47.7941 48.984C47.8741 49.256 48.0101 49.392 48.2021 49.392C48.2501 49.344 48.3781 49.088 48.5861 48.624C48.7941 48.16 49.0421 47.584 49.3301 46.896C49.6341 46.208 49.9541 45.464 50.2901 44.664C50.6261 43.864 50.9461 43.104 51.2501 42.384C51.4101 41.984 51.5621 41.608 51.7061 41.256C51.8661 40.904 52.0021 40.592 52.1141 40.32C52.2421 40.048 52.3461 39.832 52.4261 39.672C52.5061 39.496 52.5621 39.384 52.5941 39.336C52.6901 39.208 52.8341 39.12 53.0261 39.072C53.2341 39.008 53.4261 38.992 53.6021 39.024C53.7941 39.056 53.9461 39.128 54.0581 39.24C54.1701 39.352 54.1941 39.512 54.1301 39.72L52.6421 43.488C52.1141 44.864 51.6581 46.008 51.2741 46.92C50.9061 47.816 50.5381 48.528 50.1701 49.056C49.8021 49.584 49.4021 49.944 48.9701 50.136C48.5541 50.328 48.0341 50.384 47.4101 50.304C46.9781 50.256 46.6101 50.12 46.3061 49.896C46.0181 49.672 45.7861 49.376 45.6101 49.008C45.4341 48.656 45.3061 48.248 45.2261 47.784C45.1461 47.304 45.1061 46.784 45.1061 46.224C45.1061 45.328 45.1781 44.368 45.3221 43.344C45.4821 42.304 45.6341 41.296 45.7781 40.32C45.9061 39.52 46.0181 38.76 46.1141 38.04C46.2261 37.304 46.2821 36.688 46.2821 36.192C46.2821 35.808 46.2501 35.504 46.1861 35.28C46.1221 35.056 46.0181 34.936 45.8741 34.92C45.7141 34.904 45.5061 35.08 45.2501 35.448C44.9941 35.816 44.7141 36.312 44.4101 36.936C44.1061 37.544 43.7941 38.248 43.4741 39.048C43.1701 39.832 42.8741 40.632 42.5861 41.448C42.3141 42.264 42.0661 43.064 41.8421 43.848C41.6341 44.616 41.4821 45.296 41.3861 45.888C41.4021 46.048 41.4181 46.184 41.4341 46.296C41.4501 46.408 41.4741 46.496 41.5061 46.56C41.6821 46.976 41.6421 47.352 41.3861 47.688C41.1301 48.008 40.7381 48.168 40.2101 48.168C40.0661 48.168 39.9141 48.152 39.7541 48.12C39.5941 48.088 39.4261 48.032 39.2501 47.952C39.0741 47.872 38.9301 47.696 38.8181 47.424C38.7061 47.152 38.6181 46.816 38.5541 46.416C38.4901 46.016 38.4421 45.568 38.4101 45.072C38.3781 44.56 38.3621 44.032 38.3621 43.488C38.3621 42.864 38.3861 42.232 38.4341 41.592C38.4661 40.952 38.5141 40.352 38.5781 39.792C38.6421 39.216 38.7141 38.712 38.7941 38.28C38.8741 37.848 38.9541 37.52 39.0341 37.296C38.9061 37.264 38.8581 37.216 38.8901 37.152C38.9061 37.072 38.9781 37 39.1061 36.936C39.2501 36.856 39.4341 36.792 39.6581 36.744C39.8821 36.696 40.1301 36.672 40.4021 36.672C40.7381 36.672 41.0341 36.728 41.2901 36.84C41.5461 36.936 41.6581 37.128 41.6261 37.416C41.6261 37.448 41.6181 37.496 41.6021 37.56C41.5861 37.624 41.5781 37.696 41.5781 37.776L41.4581 40.704C41.7141 39.856 42.0181 38.96 42.3701 38.016C42.7381 37.056 43.1381 36.176 43.5701 35.376C44.0181 34.576 44.4901 33.912 44.9861 33.384C45.4981 32.856 46.0181 32.592 46.5461 32.592ZM51.0093 23.424C51.0573 23.376 51.3133 23.32 51.7773 23.256C52.2253 23.192 52.8173 23.136 53.5533 23.088C54.3053 23.04 55.1613 23 56.1213 22.968C57.0973 22.936 58.1213 22.912 59.1933 22.896C59.3213 22.64 59.5293 22.416 59.8173 22.224C60.1213 22.016 60.4173 21.872 60.7053 21.792C61.0093 21.696 61.2573 21.672 61.4493 21.72C61.6413 21.768 61.6893 21.912 61.5933 22.152C61.5613 22.248 61.5213 22.36 61.4733 22.488C61.4413 22.6 61.4093 22.736 61.3773 22.896C62.2413 22.912 63.0893 22.936 63.9213 22.968C64.7693 23 65.5773 23.048 66.3453 23.112C67.1133 23.176 67.8253 23.256 68.4813 23.352C69.1533 23.432 69.7373 23.536 70.2333 23.664C70.5053 23.728 70.6893 23.816 70.7853 23.928C70.8973 24.04 70.9533 24.152 70.9533 24.264C70.9533 24.408 70.8653 24.536 70.6893 24.648C70.5133 24.76 70.3293 24.816 70.1373 24.816C69.2253 24.72 68.2893 24.656 67.3293 24.624C66.3693 24.592 65.4333 24.576 64.5213 24.576C63.3533 24.576 62.2173 24.6 61.1133 24.648C60.9853 25.688 60.8813 26.928 60.8013 28.368C60.7213 29.808 60.6493 31.336 60.5853 32.952C60.5373 34.552 60.4973 36.176 60.4653 37.824C60.4333 39.456 60.4013 40.984 60.3693 42.408C60.3533 43.336 60.3373 44.2 60.3213 45C60.3213 45.8 60.3133 46.504 60.2973 47.112C60.2813 47.72 60.2573 48.208 60.2253 48.576C60.2093 48.96 60.1853 49.2 60.1533 49.296C60.0573 49.616 59.8173 49.848 59.4333 49.992C59.0493 50.152 58.6333 50.232 58.1853 50.232C57.9453 50.232 57.7053 50.2 57.4653 50.136C57.2413 50.088 57.0413 50.016 56.8653 49.92C56.7053 49.824 56.5773 49.704 56.4813 49.56C56.4013 49.432 56.3773 49.28 56.4093 49.104C56.5693 48.384 56.7213 47.512 56.8653 46.488C57.0093 45.464 57.1373 44.352 57.2493 43.152C57.3613 41.936 57.4653 40.672 57.5613 39.36C57.6573 38.032 57.7453 36.704 57.8253 35.376C57.8893 34.336 57.9533 33.312 58.0173 32.304C58.0973 31.296 58.1693 30.336 58.2333 29.424C58.3133 28.512 58.3933 27.664 58.4733 26.88C58.5693 26.08 58.6653 25.376 58.7613 24.768C58.1053 24.8 57.4893 24.84 56.9133 24.888C56.3373 24.936 55.7933 24.976 55.2813 25.008C54.4173 25.072 53.6813 25.12 53.0733 25.152C52.4653 25.168 52.0493 25.152 51.8253 25.104C51.5693 25.04 51.3533 25 51.1773 24.984C50.9853 24.968 50.8413 24.92 50.7453 24.84C50.5853 24.792 50.4333 24.712 50.2893 24.6C50.1453 24.488 50.0653 24.368 50.0493 24.24C50.0173 24.096 50.0733 23.952 50.2173 23.808C50.3453 23.664 50.6093 23.536 51.0093 23.424ZM63.4822 37.512C63.4822 37.448 63.4902 37.408 63.5062 37.392C63.5062 37.152 63.6582 36.944 63.9622 36.768C64.2662 36.576 64.6022 36.48 64.9702 36.48C65.2422 36.48 65.4902 36.552 65.7142 36.696C65.9542 36.84 66.1062 37.072 66.1702 37.392C66.2182 37.616 66.2422 37.864 66.2422 38.136C66.2582 38.392 66.2662 38.672 66.2662 38.976C66.2662 39.504 66.2502 40.072 66.2182 40.68C66.1862 41.288 66.1462 41.896 66.0982 42.504C66.0662 43.112 66.0342 43.704 66.0022 44.28C65.9862 44.84 65.9782 45.368 65.9782 45.864C65.9782 46.632 66.0182 47.264 66.0982 47.76C66.1782 48.24 66.3462 48.464 66.6022 48.432C66.7462 48.4 66.9142 48.224 67.1062 47.904C67.2982 47.568 67.4982 47.144 67.7062 46.632C67.9302 46.104 68.1462 45.512 68.3542 44.856C68.5782 44.2 68.7942 43.552 69.0022 42.912C69.2102 42.256 69.4022 41.632 69.5782 41.04C69.7702 40.432 69.9302 39.912 70.0582 39.48L70.3702 38.448C70.4342 38.272 70.5462 38.16 70.7062 38.112C70.8822 38.048 71.0502 38.032 71.2102 38.064C71.3702 38.08 71.5142 38.144 71.6422 38.256C71.7702 38.352 71.8342 38.48 71.8342 38.64C71.8342 38.992 71.7702 39.512 71.6422 40.2C71.5302 40.872 71.3622 41.616 71.1382 42.432C70.9142 43.232 70.6342 44.056 70.2982 44.904C69.9622 45.736 69.5702 46.496 69.1222 47.184C68.6902 47.856 68.2102 48.408 67.6822 48.84C67.1542 49.288 66.5782 49.512 65.9542 49.512C65.3942 49.448 64.9222 49.224 64.5382 48.84C64.1702 48.456 63.8662 47.976 63.6262 47.4C63.4022 46.808 63.2422 46.152 63.1462 45.432C63.0502 44.712 63.0022 43.976 63.0022 43.224C63.0022 42.584 63.0262 41.952 63.0742 41.328C63.1062 40.704 63.1542 40.136 63.2182 39.624C63.2662 39.096 63.3142 38.648 63.3622 38.28C63.4262 37.912 63.4662 37.656 63.4822 37.512ZM63.4102 34.248C63.4102 33.784 63.5542 33.392 63.8422 33.072C64.1462 32.752 64.5062 32.592 64.9222 32.592C65.3222 32.592 65.6662 32.752 65.9542 33.072C66.2582 33.392 66.4102 33.784 66.4102 34.248C66.4102 34.712 66.2582 35.112 65.9542 35.448C65.6662 35.768 65.3222 35.928 64.9222 35.928C64.5062 35.928 64.1462 35.768 63.8422 35.448C63.5542 35.112 63.4102 34.712 63.4102 34.248ZM77.1431 37.944C77.1431 37.88 77.1511 37.84 77.1671 37.824C77.1831 37.744 77.2391 37.656 77.3351 37.56C77.4471 37.448 77.5751 37.352 77.7191 37.272C77.8791 37.176 78.0551 37.104 78.2471 37.056C78.4391 36.992 78.6311 36.96 78.8231 36.96C79.0791 36.96 79.3031 37.024 79.4951 37.152C79.7031 37.264 79.8311 37.472 79.8791 37.776C79.9431 38.096 79.9751 38.528 79.9751 39.072C79.9751 39.648 79.9431 40.28 79.8791 40.968C79.8311 41.64 79.7671 42.328 79.6871 43.032C79.6231 43.704 79.5591 44.352 79.4951 44.976C79.4471 45.584 79.4231 46.136 79.4231 46.632C79.4231 47.144 79.4631 47.568 79.5431 47.904C79.6231 48.224 79.7591 48.368 79.9511 48.336C80.0951 48.32 80.2631 48.152 80.4551 47.832C80.6631 47.496 80.8791 47.08 81.1031 46.584C81.3271 46.072 81.5511 45.504 81.7751 44.88C82.0151 44.256 82.2391 43.632 82.4471 43.008C82.6711 42.384 82.8711 41.792 83.0471 41.232C83.2391 40.672 83.3991 40.208 83.5271 39.84L83.7671 39.048C83.8151 38.936 83.9271 38.864 84.1031 38.832C84.2791 38.8 84.4631 38.8 84.6551 38.832C84.8471 38.864 85.0071 38.92 85.1351 39C85.2631 39.08 85.3031 39.168 85.2551 39.264V39.216L85.0631 39.888C84.9671 40.32 84.8311 40.864 84.6551 41.52C84.4791 42.16 84.2631 42.848 84.0071 43.584C83.7511 44.304 83.4631 45.032 83.1431 45.768C82.8231 46.504 82.4631 47.168 82.0631 47.76C81.6631 48.336 81.2231 48.8 80.7431 49.152C80.2791 49.52 79.7831 49.696 79.2551 49.68C78.9031 49.632 78.5911 49.496 78.3191 49.272C78.0631 49.048 77.8391 48.768 77.6471 48.432C77.4551 48.096 77.2871 47.712 77.1431 47.28C77.0151 46.832 76.9191 46.36 76.8551 45.864C76.6311 46.28 76.3271 46.664 75.9431 47.016C75.5591 47.352 75.0791 47.56 74.5031 47.64C73.3991 47.704 72.5271 47.536 71.8871 47.136C71.2631 46.736 70.7911 46.24 70.4711 45.648C70.1671 45.056 69.9751 44.432 69.8951 43.776C69.8151 43.104 69.7671 42.528 69.7511 42.048C69.7511 41.728 69.7751 41.32 69.8231 40.824C69.8551 40.312 69.9431 39.768 70.0871 39.192C70.2311 38.616 70.4231 38.04 70.6631 37.464C70.9191 36.872 71.2471 36.336 71.6471 35.856C72.0631 35.376 72.5671 34.984 73.1591 34.68C73.7511 34.36 74.4471 34.184 75.2471 34.152C75.8871 34.136 76.4071 34.192 76.8071 34.32C77.2231 34.448 77.5511 34.608 77.7911 34.8C78.0311 34.992 78.2071 35.192 78.3191 35.4C78.4311 35.608 78.5111 35.792 78.5591 35.952L78.6311 36.192V36.168C78.7591 36.44 78.7351 36.648 78.5591 36.792C78.3991 36.936 78.1831 37.008 77.9111 37.008C77.7511 37.008 77.5831 36.976 77.4071 36.912C77.2311 36.832 77.0791 36.72 76.9511 36.576C76.8711 36.512 76.8311 36.464 76.8311 36.432C76.8311 36.4 76.8151 36.36 76.7831 36.312C76.7031 36.136 76.5671 35.936 76.3751 35.712C76.1991 35.488 75.9031 35.384 75.4871 35.4C75.2471 35.416 74.9831 35.576 74.6951 35.88C74.4231 36.184 74.1591 36.616 73.9031 37.176C73.6631 37.736 73.4471 38.416 73.2551 39.216C73.0631 40 72.9351 40.896 72.8711 41.904C72.8711 42 72.8631 42.128 72.8471 42.288C72.8471 42.448 72.8471 42.568 72.8471 42.648C72.8471 43.592 72.9191 44.312 73.0631 44.808C73.2071 45.288 73.3751 45.64 73.5671 45.864C73.7591 46.072 73.9511 46.184 74.1431 46.2C74.3351 46.216 74.4791 46.224 74.5751 46.224C74.7671 46.224 74.9671 46.128 75.1751 45.936C75.3831 45.744 75.5751 45.512 75.7511 45.24C75.9431 44.952 76.1191 44.648 76.2791 44.328C76.4391 43.992 76.5831 43.688 76.7111 43.416C76.7111 42.808 76.7271 42.216 76.7591 41.64C76.7911 41.048 76.8311 40.504 76.8791 40.008C76.9271 39.512 76.9751 39.088 77.0231 38.736C77.0711 38.368 77.1111 38.104 77.1431 37.944ZM90.4914 32.592C90.9554 32.592 91.3394 32.696 91.6434 32.904C91.9474 33.096 92.1874 33.368 92.3634 33.72C92.5554 34.072 92.6914 34.496 92.7714 34.992C92.8514 35.472 92.8914 36.008 92.8914 36.6C92.8914 37.576 92.8114 38.64 92.6514 39.792C92.5074 40.928 92.3554 42.048 92.1954 43.152C92.0354 44.08 91.8994 44.96 91.7874 45.792C91.6914 46.608 91.6434 47.312 91.6434 47.904C91.6434 48.368 91.6754 48.728 91.7394 48.984C91.8194 49.256 91.9554 49.392 92.1474 49.392C92.1954 49.344 92.3234 49.088 92.5314 48.624C92.7394 48.16 92.9874 47.584 93.2754 46.896C93.5794 46.208 93.8994 45.464 94.2354 44.664C94.5714 43.864 94.8914 43.104 95.1954 42.384C95.3554 41.984 95.5074 41.608 95.6514 41.256C95.8114 40.904 95.9474 40.592 96.0594 40.32C96.1874 40.048 96.2914 39.832 96.3714 39.672C96.4514 39.496 96.5074 39.384 96.5394 39.336C96.6354 39.208 96.7794 39.12 96.9714 39.072C97.1794 39.008 97.3714 38.992 97.5474 39.024C97.7394 39.056 97.8914 39.128 98.0034 39.24C98.1154 39.352 98.1394 39.512 98.0754 39.72L96.5874 43.488C96.0594 44.864 95.6034 46.008 95.2194 46.92C94.8514 47.816 94.4834 48.528 94.1154 49.056C93.7474 49.584 93.3474 49.944 92.9154 50.136C92.4994 50.328 91.9794 50.384 91.3554 50.304C90.9234 50.256 90.5554 50.12 90.2514 49.896C89.9634 49.672 89.7314 49.376 89.5554 49.008C89.3794 48.656 89.2514 48.248 89.1714 47.784C89.0914 47.304 89.0514 46.784 89.0514 46.224C89.0514 45.328 89.1234 44.368 89.2674 43.344C89.4274 42.304 89.5794 41.296 89.7234 40.32C89.8514 39.52 89.9634 38.76 90.0594 38.04C90.1714 37.304 90.2274 36.688 90.2274 36.192C90.2274 35.808 90.1954 35.504 90.1314 35.28C90.0674 35.056 89.9634 34.936 89.8194 34.92C89.6594 34.904 89.4514 35.08 89.1954 35.448C88.9394 35.816 88.6594 36.312 88.3554 36.936C88.0514 37.544 87.7394 38.248 87.4194 39.048C87.1154 39.832 86.8194 40.632 86.5314 41.448C86.2594 42.264 86.0114 43.064 85.7874 43.848C85.5794 44.616 85.4274 45.296 85.3314 45.888C85.3474 46.048 85.3634 46.184 85.3794 46.296C85.3954 46.408 85.4194 46.496 85.4514 46.56C85.6274 46.976 85.5874 47.352 85.3314 47.688C85.0754 48.008 84.6834 48.168 84.1554 48.168C84.0114 48.168 83.8594 48.152 83.6994 48.12C83.5394 48.088 83.3714 48.032 83.1954 47.952C83.0194 47.872 82.8754 47.696 82.7634 47.424C82.6514 47.152 82.5634 46.816 82.4994 46.416C82.4354 46.016 82.3874 45.568 82.3554 45.072C82.3234 44.56 82.3074 44.032 82.3074 43.488C82.3074 42.864 82.3314 42.232 82.3794 41.592C82.4114 40.952 82.4594 40.352 82.5234 39.792C82.5874 39.216 82.6594 38.712 82.7394 38.28C82.8194 37.848 82.8994 37.52 82.9794 37.296C82.8514 37.264 82.8034 37.216 82.8354 37.152C82.8514 37.072 82.9234 37 83.0514 36.936C83.1954 36.856 83.3794 36.792 83.6034 36.744C83.8274 36.696 84.0754 36.672 84.3474 36.672C84.6834 36.672 84.9794 36.728 85.2354 36.84C85.4914 36.936 85.6034 37.128 85.5714 37.416C85.5714 37.448 85.5634 37.496 85.5474 37.56C85.5314 37.624 85.5234 37.696 85.5234 37.776L85.4034 40.704C85.6594 39.856 85.9634 38.96 86.3154 38.016C86.6834 37.056 87.0834 36.176 87.5154 35.376C87.9634 34.576 88.4354 33.912 88.9314 33.384C89.4434 32.856 89.9634 32.592 90.4914 32.592Z" fill="black"/>
<g filter="url(#filter8_f_380_2119)">
<g filter="url(#filter9_d_380_2119)">
<rect y="782" width="390" height="62" fill="white"/>
<rect x="0.5" y="782.5" width="389" height="61" stroke="black" stroke-opacity="0.4"/>
</g>
<path d="M63.8332 823.833V809.917C63.8332 809.602 63.685 809.306 63.4332 809.117L52.0998 800.617C51.7443 800.35 51.2554 800.35 50.8998 800.617L39.5665 809.117C39.3147 809.306 39.1665 809.602 39.1665 809.917V823.833C39.1665 824.386 39.6142 824.833 40.1665 824.833H47.4165C47.9688 824.833 48.4165 824.386 48.4165 823.833V818.125C48.4165 817.573 48.8642 817.125 49.4165 817.125H53.5832C54.1355 817.125 54.5832 817.573 54.5832 818.125V823.833C54.5832 824.386 55.0309 824.833 55.5832 824.833H62.8332C63.3855 824.833 63.8332 824.386 63.8332 823.833Z" stroke="#716E79" stroke-width="2" stroke-linecap="round" stroke-linejoin="round"/>
<path d="M149.833 824.833L143.589 818.589M143.589 818.589C145.542 816.636 146.75 813.938 146.75 810.958C146.75 804.998 141.918 800.167 135.958 800.167C129.998 800.167 125.167 804.998 125.167 810.958C125.167 816.918 129.998 821.75 135.958 821.75C138.938 821.75 141.636 820.542 143.589 818.589Z" stroke="#716E79" stroke-width="2" stroke-linecap="round" stroke-linejoin="round"/>
<rect x="226.448" y="800.669" width="18.7227" height="24.5864" rx="3.1" stroke="#716E79" stroke-width="1.8"/>
<path d="M235.821 800.756L235.731 800.25C235.322 797.957 233.047 796.498 230.792 797.081L220.873 799.646C218.734 800.199 217.448 802.381 218.001 804.52L222.49 821.878C222.975 823.752 224.911 824.856 226.771 824.319V824.319" stroke="#716E79" stroke-width="1.8"/>
</g>
<path d="M339.393 802.761L338.188 803.37H333.812L332.607 802.761C331.629 802.261 330.55 802 329.456 802H328.17C325.738 802 323.406 802.983 321.686 804.733C319.966 806.483 319 808.857 319 811.332V820.925C319 821.986 319.343 823.017 319.975 823.86C320.608 824.703 321.495 825.311 322.501 825.591L322.932 825.707C323.932 825.986 324.993 825.923 325.955 825.53C326.917 825.137 327.725 824.434 328.257 823.529L331.684 817.718C331.923 817.316 332.26 816.983 332.662 816.751C333.064 816.52 333.518 816.397 333.98 816.396H338.02C338.482 816.397 338.936 816.52 339.338 816.751C339.74 816.983 340.077 817.316 340.316 817.718L343.743 823.529C344.275 824.434 345.083 825.137 346.045 825.53C347.007 825.923 348.068 825.986 349.068 825.707L349.499 825.591C350.505 825.311 351.392 824.703 352.025 823.86C352.657 823.017 353 821.986 353 820.925V811.332C353 810.107 352.763 808.893 352.302 807.761C351.841 806.629 351.166 805.6 350.314 804.733C349.463 803.867 348.452 803.179 347.339 802.71C346.227 802.241 345.034 802 343.83 802H342.544C341.45 802 340.371 802.261 339.393 802.761Z" fill="#5F4D89" stroke="#5F4D89" stroke-width="2" stroke-linecap="round" stroke-linejoin="round"/>
<path d="M346.267 808.167C346.267 808.53 346.126 808.879 345.873 809.136C345.621 809.393 345.278 809.537 344.921 809.537C344.564 809.537 344.221 809.393 343.969 809.136C343.716 808.879 343.574 808.53 343.574 808.167C343.574 807.803 343.716 807.455 343.969 807.198C344.221 806.941 344.564 806.796 344.921 806.796C345.278 806.796 345.621 806.941 345.873 807.198C346.126 807.455 346.267 807.803 346.267 808.167ZM344.921 812.278C344.564 812.278 344.221 812.422 343.969 812.679C343.716 812.936 343.574 813.285 343.574 813.648C343.574 814.012 343.716 814.36 343.969 814.617C344.221 814.874 344.564 815.019 344.921 815.019C345.278 815.019 345.621 814.874 345.873 814.617C346.126 814.36 346.267 814.012 346.267 813.648C346.267 813.285 346.126 812.936 345.873 812.679C345.621 812.422 345.278 812.278 344.921 812.278ZM348.961 810.907C348.961 810.544 348.819 810.195 348.566 809.938C348.314 809.681 347.971 809.537 347.614 809.537C347.257 809.537 346.914 809.681 346.662 809.938C346.409 810.195 346.267 810.544 346.267 810.907C346.267 811.271 346.409 811.619 346.662 811.876C346.914 812.133 347.257 812.278 347.614 812.278C347.971 812.278 348.314 812.133 348.566 811.876C348.819 811.619 348.961 811.271 348.961 810.907ZM343.574 810.907C343.574 810.544 343.433 810.195 343.18 809.938C342.927 809.681 342.585 809.537 342.228 809.537C341.871 809.537 341.528 809.681 341.276 809.938C341.023 810.195 340.881 810.544 340.881 810.907C340.881 811.271 341.023 811.619 341.276 811.876C341.528 812.133 341.871 812.278 342.228 812.278C342.585 812.278 342.927 812.133 343.18 811.876C343.433 811.619 343.574 811.271 343.574 810.907Z" fill="white"/>
<path d="M326.07 808.167V813.648V808.167ZM328.763 810.907H323.376H328.763Z" fill="white"/>
<path d="M328.763 810.907H323.376M326.07 808.167V813.648V808.167Z" stroke="white" stroke-width="2" stroke-linecap="round" stroke-linejoin="round"/>
</g>
<defs>
<filter id="filter0_f_380_2119" x="117.936" y="105.624" width="153.2" height="35.736" filterUnits="userSpaceOnUse" color-interpolation-filters="sRGB">
<feFlood flood-opacity="0" result="BackgroundImageFix"/>
<feBlend mode="normal" in="SourceGraphic" in2="BackgroundImageFix" result="shape"/>
<feGaussianBlur stdDeviation="4.5" result="effect1_foregroundBlur_380_2119"/>
</filter>
<filter id="filter1_f_380_2119" x="147.06" y="129.9" width="95.1001" height="36.06" filterUnits="userSpaceOnUse" color-interpolation-filters="sRGB">
<feFlood flood-opacity="0" result="BackgroundImageFix"/>
<feBlend mode="normal" in="SourceGraphic" in2="BackgroundImageFix" result="shape"/>
<feGaussianBlur stdDeviation="4.5" result="effect1_foregroundBlur_380_2119"/>
</filter>
<filter id="filter2_f_380_2119" x="49" y="176" width="291" height="492" filterUnits="userSpaceOnUse" color-interpolation-filters="sRGB">
<feFlood flood-opacity="0" result="BackgroundImageFix"/>
<feBlend mode="normal" in="SourceGraphic" in2="BackgroundImageFix" result="shape"/>
<feGaussianBlur stdDeviation="4.5" result="effect1_foregroundBlur_380_2119"/>
</filter>
<filter id="filter3_f_380_2119" x="71.877" y="283.336" width="245.624" height="190.584" filterUnits="userSpaceOnUse" color-interpolation-filters="sRGB">
<feFlood flood-opacity="0" result="BackgroundImageFix"/>
<feBlend mode="normal" in="SourceGraphic" in2="BackgroundImageFix" result="shape"/>
<feGaussianBlur stdDeviation="4.5" result="effect1_foregroundBlur_380_2119"/>
</filter>
<filter id="filter4_f_380_2119" x="151.196" y="230.176" width="87.0366" height="37.214" filterUnits="userSpaceOnUse" color-interpolation-filters="sRGB">
<feFlood flood-opacity="0" result="BackgroundImageFix"/>
<feBlend mode="normal" in="SourceGraphic" in2="BackgroundImageFix" result="shape"/>
<feGaussianBlur stdDeviation="4.5" result="effect1_foregroundBlur_380_2119"/>
</filter>
<filter id="filter5_f_380_2119" x="112" y="531" width="165" height="79" filterUnits="userSpaceOnUse" color-interpolation-filters="sRGB">
<feFlood flood-opacity="0" result="BackgroundImageFix"/>
<feBlend mode="normal" in="SourceGraphic" in2="BackgroundImageFix" result="shape"/>
<feGaussianBlur stdDeviation="4.5" result="effect1_foregroundBlur_380_2119"/>
</filter>
<filter id="filter6_f_380_2119" x="153.875" y="552.176" width="83.7671" height="37.214" filterUnits="userSpaceOnUse" color-interpolation-filters="sRGB">
<feFlood flood-opacity="0" result="BackgroundImageFix"/>
<feBlend mode="normal" in="SourceGraphic" in2="BackgroundImageFix" result="shape"/>
<feGaussianBlur stdDeviation="4.5" result="effect1_foregroundBlur_380_2119"/>
</filter>
<filter id="filter7_d_380_2119" x="-4" y="0" width="398" height="70" filterUnits="userSpaceOnUse" color-interpolation-filters="sRGB">
<feFlood flood-opacity="0" result="BackgroundImageFix"/>
<feColorMatrix in="SourceAlpha" type="matrix" values="0 0 0 0 0 0 0 0 0 0 0 0 0 0 0 0 0 0 127 0" result="hardAlpha"/>
<feOffset dy="4"/>
<feGaussianBlur stdDeviation="2"/>
<feComposite in2="hardAlpha" operator="out"/>
<feColorMatrix type="matrix" values="0 0 0 0 0 0 0 0 0 0 0 0 0 0 0 0 0 0 0.25 0"/>
<feBlend mode="normal" in2="BackgroundImageFix" result="effect1_dropShadow_380_2119"/>
<feBlend mode="normal" in="SourceGraphic" in2="effect1_dropShadow_380_2119" result="shape"/>
</filter>
<filter id="filter8_f_380_2119" x="-4" y="778" width="398" height="70" filterUnits="userSpaceOnUse" color-interpolation-filters="sRGB">
<feFlood flood-opacity="0" result="BackgroundImageFix"/>
<feBlend mode="normal" in="SourceGraphic" in2="BackgroundImageFix" result="shape"/>
<feGaussianBlur stdDeviation="2" result="effect1_foregroundBlur_380_2119"/>
</filter>
<filter id="filter9_d_380_2119" x="-4" y="774" width="398" height="70" filterUnits="userSpaceOnUse" color-interpolation-filters="sRGB">
<feFlood flood-opacity="0" result="BackgroundImageFix"/>
<feColorMatrix in="SourceAlpha" type="matrix" values="0 0 0 0 0 0 0 0 0 0 0 0 0 0 0 0 0 0 127 0" result="hardAlpha"/>
<feOffset dy="-4"/>
<feGaussianBlur stdDeviation="2"/>
<feComposite in2="hardAlpha" operator="out"/>
<feColorMatrix type="matrix" values="0 0 0 0 0 0 0 0 0 0 0 0 0 0 0 0 0 0 0.25 0"/>
<feBlend mode="normal" in2="BackgroundImageFix" result="effect1_dropShadow_380_2119"/>
<feBlend mode="normal" in="SourceGraphic" in2="effect1_dropShadow_380_2119" result="shape"/>
</filter>
<clipPath id="clip0_380_2119">
<rect width="390" height="844" fill="white"/>
</clipPath>
</defs>
</svg>
